<svg width="106" height="97" viewBox="0 0 106 97" fill="none" xmlns="http://www.w3.org/2000/svg">
<g filter="url(#filter0_d_187_36)">
<circle cx="57.0336" cy="48.1481" r="45" transform="rotate(4 57.0336 48.1481)" fill="#FB7F03"/>
<circle cx="57.0336" cy="48.1481" r="43.5" transform="rotate(4 57.0336 48.1481)" stroke="white" stroke-width="3"/>
</g>
<g clip-path="url(#clip0_187_36)">
<path d="M49.6914 45.6297C48.314 45.5334 47.1194 46.5718 47.0231 47.9492C46.9267 49.3266 47.9652 50.5212 49.3426 50.6175C50.7199 50.7138 51.9146 49.6754 52.0109 48.298C52.1072 46.9206 51.0687 45.726 49.6914 45.6297Z" fill="white"/>
<path d="M61.9865 48.9956C62.0828 47.6182 63.2774 46.5798 64.6548 46.6761C66.0322 46.7724 67.0706 47.967 66.9743 49.3444C66.878 50.7218 65.6834 51.7602 64.306 51.6639C62.9286 51.5676 61.8902 50.373 61.9865 48.9956Z" fill="white"/>
<path fill-rule="evenodd" clip-rule="evenodd" d="M59.196 17.2235C56.7473 17.0523 54.6261 18.8624 54.458 21.2665C54.3454 22.8777 55.1386 24.3468 56.4112 25.1922L56.066 30.1275L44.982 29.3524C41.3091 29.0956 38.1272 31.8108 37.875 35.4169L36.353 57.1819C36.1009 60.7882 38.8739 63.9197 42.5469 64.1765L69.1486 66.0367C72.8216 66.2935 76.0034 63.5784 76.2556 59.9722L77.7776 38.2072C78.0297 34.601 75.2567 31.4694 71.5837 31.2126L60.4997 30.4375L60.8448 25.5022C62.2226 24.8422 63.2126 23.4978 63.3253 21.8865C63.4934 19.4824 61.6447 17.3947 59.196 17.2235ZM42.3086 35.7269C42.3927 34.5249 43.4533 33.6198 44.6776 33.7054L47.7412 33.9197L50.5088 40.4437C51.1567 41.971 52.6268 43.0099 54.3061 43.1273L60.4333 43.5558C62.1125 43.6732 63.7128 42.849 64.567 41.4267L68.2157 35.3514L71.2793 35.5656C72.5037 35.6512 73.428 36.6951 73.3439 37.8971L71.822 59.6622C71.7379 60.8642 70.6773 61.7693 69.453 61.6837L42.8513 59.8235C41.627 59.7379 40.7026 58.694 40.7866 57.492L42.3086 35.7269ZM60.7377 39.2028L63.2589 35.0048L52.6981 34.2663L54.6104 38.7743L60.7377 39.2028Z" fill="white"/>
<path d="M32.8723 42.4488C31.4949 42.3525 30.3081 43.2793 30.2214 44.5189L29.9075 49.008C29.8208 50.2476 30.8671 51.3306 32.2445 51.4269C33.6218 51.5232 34.8086 50.5964 34.8953 49.3568L35.2092 44.8677C35.2959 43.6281 34.2496 42.5451 32.8723 42.4488Z" fill="white"/>
<path d="M79.102 47.9369C79.1887 46.6973 80.3755 45.7705 81.7529 45.8668C83.1303 45.9631 84.1765 47.046 84.0898 48.2857L83.7759 52.7747C83.6893 54.0144 82.5025 54.9412 81.1251 54.8449C79.7477 54.7485 78.7014 53.6656 78.7881 52.4259L79.102 47.9369Z" fill="white"/>
</g>
<defs>
<filter id="filter0_d_187_36" x="0.0317383" y="1.14624" width="102.004" height="92.0037" filterUnits="userSpaceOnUse" color-interpolation-filters="sRGB">
<feFlood flood-opacity="0" result="BackgroundImageFix"/>
<feColorMatrix in="SourceAlpha" type="matrix" values="0 0 0 0 0 0 0 0 0 0 0 0 0 0 0 0 0 0 127 0" result="hardAlpha"/>
<feOffset dx="-12" dy="-2"/>
<feComposite in2="hardAlpha" operator="out"/>
<feColorMatrix type="matrix" values="0 0 0 0 0 0 0 0 0 0 0 0 0 0 0 0 0 0 0.15 0"/>
<feBlend mode="normal" in2="BackgroundImageFix" result="effect1_dropShadow_187_36"/>
<feBlend mode="normal" in="SourceGraphic" in2="effect1_dropShadow_187_36" result="shape"/>
</filter>
<clipPath id="clip0_187_36">
<rect width="60" height="60" fill="white" transform="translate(31.8223 7.28979) rotate(4)"/>
</clipPath>
</defs>
</svg>
