<svg width="107" height="100" viewBox="0 0 107 100" fill="none" xmlns="http://www.w3.org/2000/svg">
<g filter="url(#filter0_d_187_51)">
<circle cx="57.374" cy="50.2112" r="45" transform="rotate(-6 57.374 50.2112)" fill="#039CFB"/>
<circle cx="57.374" cy="50.2112" r="43.5" transform="rotate(-6 57.374 50.2112)" stroke="white" stroke-width="3"/>
</g>
<rect x="32.2018" y="33.9715" width="47" height="37" rx="5.5" transform="rotate(-6 32.2018 33.9715)" stroke="white" stroke-width="3"/>
<rect x="39.2919" y="48.8118" width="10" height="14" rx="2" transform="rotate(-6 39.2919 48.8118)" fill="white"/>
<rect x="42.589" y="51.4817" width="4" height="8" rx="1" transform="rotate(-6 42.589 51.4817)" fill="#039CFB"/>
<rect x="52.7433" y="52.4253" width="22" height="3" rx="1.5" transform="rotate(-6 52.7433 52.4253)" fill="white"/>
<rect x="52.2207" y="47.4529" width="22" height="3" rx="1.5" transform="rotate(-6 52.2207 47.4529)" fill="white"/>
<rect x="36.5712" y="42.0591" width="40" height="3" rx="1.5" transform="rotate(-6 36.5712 42.0591)" fill="white"/>
<circle cx="38.2466" cy="38.8664" r="2" transform="rotate(-6 38.2466 38.8664)" fill="white"/>
<circle cx="45.2082" cy="38.1347" r="2" transform="rotate(-6 45.2082 38.1347)" fill="white"/>
<circle cx="52.1699" cy="37.403" r="2" transform="rotate(-6 52.1699 37.403)" fill="white"/>
<defs>
<filter id="filter0_d_187_51" x="0.370361" y="3.20752" width="102.007" height="92.0073" filterUnits="userSpaceOnUse" color-interpolation-filters="sRGB">
<feFlood flood-opacity="0" result="BackgroundImageFix"/>
<feColorMatrix in="SourceAlpha" type="matrix" values="0 0 0 0 0 0 0 0 0 0 0 0 0 0 0 0 0 0 127 0" result="hardAlpha"/>
<feOffset dx="-12" dy="-2"/>
<feComposite in2="hardAlpha" operator="out"/>
<feColorMatrix type="matrix" values="0 0 0 0 0 0 0 0 0 0 0 0 0 0 0 0 0 0 0.15 0"/>
<feBlend mode="normal" in2="BackgroundImageFix" result="effect1_dropShadow_187_51"/>
<feBlend mode="normal" in="SourceGraphic" in2="effect1_dropShadow_187_51" result="shape"/>
</filter>
</defs>
</svg>
