<svg width="49" height="41" viewBox="0 0 49 41" fill="none" xmlns="http://www.w3.org/2000/svg">
<path d="M4.47991 5.57888C2.17347 5.90303 0.574944 8.10658 0.911098 10.4984C1.10264 11.8613 1.90072 13.0562 3.06928 13.7295L24.0784 25.7981C25.1784 26.4258 26.5361 26.235 27.4205 25.3284L44.2892 7.93644C45.2269 6.96708 45.6647 5.59856 45.4732 4.23565C45.137 1.84379 42.993 0.166215 40.6866 0.490363L4.47991 5.57888ZM1.72294 16.275L4.36143 35.0488C4.80921 38.235 7.67119 40.4743 10.7435 40.0426L44.1651 35.3455C47.2374 34.9137 49.3713 31.9722 48.9235 28.786L46.285 10.0122L29.4163 27.4041C27.6488 29.2265 24.9333 29.6081 22.732 28.3436L1.72294 16.275Z" fill="#0F3231"/>
</svg>
