<svg width="102" height="92" viewBox="0 0 102 92" fill="none" xmlns="http://www.w3.org/2000/svg">
<g filter="url(#filter0_d_434_83)">
<circle cx="57" cy="47" r="43.5" fill="#FB7F03" stroke="white" stroke-width="3"/>
<path d="M51.5 47C50.1193 47 49 48.1193 49 49.5C49 50.8807 50.1193 52 51.5 52C52.8807 52 54 50.8807 54 49.5C54 48.1193 52.8807 47 51.5 47Z" fill="white"/>
<path d="M64 49.5C64 48.1193 65.1193 47 66.5 47C67.8807 47 69 48.1193 69 49.5C69 50.8807 67.8807 52 66.5 52C65.1193 52 64 50.8807 64 49.5Z" fill="white"/>
<path fill-rule="evenodd" clip-rule="evenodd" d="M59 18C56.5453 18 54.5556 19.9537 54.5556 22.3636C54.5556 23.9788 55.4493 25.389 56.7778 26.1435V31.0909H45.6667C41.9848 31.0909 39 34.0214 39 37.6364V59.4545C39 63.0696 41.9848 66 45.6667 66H72.3333C76.0153 66 79 63.0696 79 59.4545V37.6364C79 34.0214 76.0153 31.0909 72.3333 31.0909H61.2222V26.1435C62.5507 25.389 63.4444 23.9788 63.4444 22.3636C63.4444 19.9537 61.4547 18 59 18ZM43.4444 37.6364C43.4444 36.4314 44.4394 35.4545 45.6667 35.4545H48.7377L51.9537 41.7696C52.7066 43.248 54.2455 44.1818 55.9289 44.1818H62.0711C63.7544 44.1818 65.2933 43.248 66.0462 41.7696L69.2622 35.4545H72.3333C73.5607 35.4545 74.5556 36.4314 74.5556 37.6364V59.4545C74.5556 60.6596 73.5607 61.6364 72.3333 61.6364H45.6667C44.4394 61.6364 43.4444 60.6596 43.4444 59.4545V37.6364ZM62.0711 39.8182L64.2933 35.4545H53.7067L55.9289 39.8182H62.0711Z" fill="white"/>
<path d="M34.5 45C33.1193 45 32 46.0073 32 47.25V51.75C32 52.9927 33.1193 54 34.5 54C35.8807 54 37 52.9927 37 51.75V47.25C37 46.0073 35.8807 45 34.5 45Z" fill="white"/>
<path d="M81 47.25C81 46.0073 82.1193 45 83.5 45C84.8807 45 86 46.0073 86 47.25V51.75C86 52.9927 84.8807 54 83.5 54C82.1193 54 81 52.9927 81 51.75V47.25Z" fill="white"/>
</g>
<defs>
<filter id="filter0_d_434_83" x="0" y="0" width="102" height="92" filterUnits="userSpaceOnUse" color-interpolation-filters="sRGB">
<feFlood flood-opacity="0" result="BackgroundImageFix"/>
<feColorMatrix in="SourceAlpha" type="matrix" values="0 0 0 0 0 0 0 0 0 0 0 0 0 0 0 0 0 0 127 0" result="hardAlpha"/>
<feOffset dx="-12" dy="-2"/>
<feComposite in2="hardAlpha" operator="out"/>
<feColorMatrix type="matrix" values="0 0 0 0 0 0 0 0 0 0 0 0 0 0 0 0 0 0 0.15 0"/>
<feBlend mode="normal" in2="BackgroundImageFix" result="effect1_dropShadow_434_83"/>
<feBlend mode="normal" in="SourceGraphic" in2="effect1_dropShadow_434_83" result="shape"/>
</filter>
</defs>
</svg>
