<svg width="46" height="46" viewBox="0 0 46 46" fill="none" xmlns="http://www.w3.org/2000/svg">
<path d="M20.2061 0.341262C7.89767 2.0711 -0.673338 13.4452 1.0565 25.7537C2.78635 38.0622 14.1605 46.6332 26.4689 44.9033C38.7774 43.1735 47.3484 31.7994 45.6186 19.4909C43.8887 7.18243 32.5146 -1.38858 20.2061 0.341262ZM32.6682 14.0457C32.8307 17.6143 32.5773 26.3718 32.3949 30.4195C32.3153 32.1348 31.7827 32.7776 31.1973 32.9149C29.92 33.2135 28.8043 32.3808 27.4303 31.731C25.2912 30.7216 24.0648 30.0785 21.9923 29.0871C19.5879 27.95 20.904 26.9497 21.9697 25.4714C22.2542 25.0833 27.2217 19.0989 27.2638 18.6165C27.2729 18.5511 27.2516 18.3342 27.1004 18.2364C26.9493 18.1385 26.7669 18.2099 26.6359 18.2558C26.4442 18.3255 23.6025 20.8352 18.1109 25.7847C17.3103 26.5202 16.5464 26.9299 15.8191 27.0138C15.017 27.1082 13.429 26.8916 12.2363 26.6836C10.7806 26.4301 9.63242 26.3441 9.62266 25.5576C9.61418 25.1496 10.1105 24.6614 11.1118 24.0931C17.2071 20.3536 21.2753 17.8793 23.3164 16.6701C29.1455 13.2307 30.3671 12.6009 31.2001 12.4655C31.3888 12.439 31.7994 12.4271 32.0992 12.6048C32.2969 12.7347 32.4391 12.9336 32.4983 13.1626C32.5881 13.4496 32.6451 13.7458 32.6682 14.0457Z" fill="#00252E" fill-opacity="0.94"/>
</svg>
