<svg width="104" height="105" viewBox="0 0 104 105" fill="none" xmlns="http://www.w3.org/2000/svg">
<g filter="url(#filter0_d_187_21)">
<circle cx="51.9036" cy="52.2804" r="45" transform="rotate(9 51.9036 52.2804)" fill="#EC68FD"/>
<circle cx="51.9036" cy="52.2804" r="43.5" transform="rotate(9 51.9036 52.2804)" stroke="white" stroke-width="3"/>
</g>
<path d="M32.2455 66.5633C31.9941 66.5235 31.7592 66.4299 31.5409 66.2826C31.3227 66.1352 31.1474 65.9706 31.0152 65.7885C30.6928 65.3831 30.5727 64.9211 30.6548 64.4026C30.7369 63.8841 30.9807 63.4636 31.3861 63.1412C32.0828 62.6073 32.8575 62.3434 33.7102 62.3496C34.5629 62.3558 35.4011 62.5046 36.2247 62.7962C36.4661 62.8988 36.6919 62.999 36.9019 63.0967C37.1119 63.1944 37.308 63.1771 37.49 63.0449C37.7084 62.8862 37.8165 62.6617 37.8141 62.3714C37.8118 62.0811 37.7991 61.8052 37.776 61.5439C37.7847 60.6754 37.9022 59.8323 38.1283 59.0144C38.3545 58.1965 38.8159 57.5206 39.5126 56.9867C40.2093 56.4527 40.9839 56.1888 41.8366 56.195C42.6894 56.2012 43.5275 56.3501 44.3511 56.6416C44.5926 56.7443 44.8262 56.8457 45.0519 56.9459C45.2777 57.0461 45.4816 57.03 45.6636 56.8978C45.882 56.7391 45.9822 56.5133 45.9641 56.2205C45.9461 55.9277 45.9255 55.6507 45.9025 55.3893C45.9112 54.5209 46.0286 53.6777 46.2548 52.8598C46.481 52.042 46.9424 51.366 47.6391 50.8321C48.3357 50.2981 49.1104 50.0342 49.9631 50.0404C50.8158 50.0466 51.654 50.1955 52.4776 50.487C52.7191 50.5897 52.9527 50.6911 53.1784 50.7913C53.4042 50.8915 53.608 50.8754 53.7901 50.7432C54.0085 50.5845 54.1087 50.3588 54.0906 50.066C54.0726 49.7732 54.052 49.4961 54.029 49.2347C54.0377 48.3663 54.163 47.5244 54.4048 46.709C54.6467 45.8936 55.116 45.2189 55.8127 44.685C56.5093 44.151 57.284 43.8871 58.1367 43.8933C58.9894 43.8995 59.8276 44.0484 60.6512 44.3399C60.8927 44.4426 61.1263 44.544 61.352 44.6442C61.5778 44.7444 61.7816 44.7283 61.9637 44.5961C62.1821 44.4374 62.2823 44.2116 62.2642 43.9188C62.2462 43.6261 62.2256 43.349 62.2026 43.0876C62.2113 42.2192 62.3366 41.3773 62.5785 40.5619C62.8203 39.7465 63.2896 39.0718 63.9863 38.5378C64.6829 38.0039 65.4576 37.74 66.3103 37.7462C67.163 37.7524 68.0012 37.9013 68.8248 38.1928C69.0663 38.2955 69.3011 38.389 69.5294 38.4735C69.7576 38.558 69.9627 38.5341 70.1447 38.4018C70.5502 38.0795 71.0121 37.9593 71.5307 38.0415C72.0492 38.1236 72.4697 38.3674 72.792 38.7728C73.1144 39.1782 73.2345 39.6402 73.1524 40.1587C73.0702 40.6773 72.8265 41.0977 72.4211 41.4201C71.7244 41.9541 70.9485 42.2258 70.0933 42.2353C69.2381 42.2448 68.3987 42.1038 67.575 41.8123C67.3336 41.7096 67.1 41.6082 66.8742 41.508C66.6485 41.4079 66.4446 41.4239 66.2626 41.5561C66.0442 41.7148 65.944 41.9406 65.962 42.2334C65.9801 42.5262 66.0006 42.8032 66.0237 43.0646C66.015 43.933 65.8897 44.775 65.6478 45.5903C65.4059 46.4057 64.9366 47.0804 64.24 47.6144C63.5433 48.1483 62.7687 48.4122 61.9159 48.406C61.0632 48.3998 60.2251 48.251 59.4014 47.9594C59.16 47.8568 58.9342 47.7566 58.7242 47.6589C58.5142 47.5612 58.3181 47.5785 58.1361 47.7107C57.9177 47.8694 57.8097 48.0939 57.812 48.3842C57.8144 48.6745 57.827 48.9504 57.8501 49.2117C57.8414 50.0802 57.724 50.9233 57.4978 51.7412C57.2716 52.5591 56.8102 53.235 56.1135 53.7689C55.4218 54.2715 54.6484 54.5275 53.7932 54.537C52.938 54.5465 52.0986 54.4055 51.275 54.114C51.0335 54.0113 50.8065 53.919 50.594 53.837C50.3815 53.755 50.1842 53.7802 50.0022 53.9124C49.7838 54.0711 49.677 54.2878 49.6818 54.5624C49.6866 54.837 49.7006 55.1049 49.7236 55.3663C49.7149 56.2347 49.5975 57.0779 49.3713 57.8958C49.1451 58.7136 48.6837 59.3896 47.9871 59.9235C47.2904 60.4575 46.5079 60.7201 45.6394 60.7114C44.771 60.7028 43.925 60.5526 43.1014 60.2611C42.8599 60.1585 42.6329 60.0661 42.4204 59.9841C42.2079 59.9022 42.0106 59.9273 41.8286 60.0595C41.6102 60.2182 41.5112 60.4361 41.5318 60.7132C41.5523 60.9903 41.5741 61.2595 41.5971 61.5209C41.5885 62.3893 41.4632 63.2312 41.2213 64.0466C40.9794 64.862 40.5101 65.5367 39.8134 66.0706C39.1168 66.6046 38.3421 66.8685 37.4894 66.8623C36.6367 66.8561 35.7985 66.7072 34.9749 66.4157C34.7334 66.313 34.5065 66.2207 34.2939 66.1387C34.0814 66.0567 33.8841 66.0819 33.7021 66.2141C33.4837 66.3728 33.2492 66.4806 32.9985 66.5376C32.7479 66.5945 32.4969 66.6031 32.2455 66.5633ZM40.8887 48.6032C38.2803 48.1901 36.2025 46.9187 34.6552 44.789C33.108 42.6594 32.5409 40.2903 32.954 37.6819C33.3721 35.0421 34.6448 32.9564 36.7719 31.4248C38.899 29.8932 41.2668 29.334 43.8752 29.7471C46.515 30.1653 48.602 31.43 50.136 33.5415C51.67 35.6529 52.228 38.0286 51.8099 40.6684C51.3968 43.2768 50.1332 45.3559 48.0193 46.9057C45.9054 48.4555 43.5285 49.0213 40.8887 48.6032ZM56.1608 74.2169C55.1237 74.0526 54.2944 73.5428 53.6729 72.6873C53.0513 71.8318 52.8227 70.8855 52.9869 69.8484L54.4802 60.4204C54.6444 59.3833 55.1543 58.554 56.0098 57.9324C56.8653 57.3109 57.8116 57.0822 58.8486 57.2465L68.2766 58.7397C69.3137 58.904 70.143 59.4138 70.7645 60.2693C71.3861 61.1248 71.6147 62.0711 71.4505 63.1082L69.9572 72.5362C69.793 73.5733 69.2831 74.4026 68.4276 75.0242C67.5721 75.6457 66.6258 75.8744 65.5887 75.7101L56.1608 74.2169Z" fill="white"/>
<defs>
<filter id="filter0_d_187_21" x="1.89703" y="7.27393" width="95.0132" height="97.0132" filterUnits="userSpaceOnUse" color-interpolation-filters="sRGB">
<feFlood flood-opacity="0" result="BackgroundImageFix"/>
<feColorMatrix in="SourceAlpha" type="matrix" values="0 0 0 0 0 0 0 0 0 0 0 0 0 0 0 0 0 0 127 0" result="hardAlpha"/>
<feOffset dx="-5" dy="7"/>
<feComposite in2="hardAlpha" operator="out"/>
<feColorMatrix type="matrix" values="0 0 0 0 0 0 0 0 0 0 0 0 0 0 0 0 0 0 0.15 0"/>
<feBlend mode="normal" in2="BackgroundImageFix" result="effect1_dropShadow_187_21"/>
<feBlend mode="normal" in="SourceGraphic" in2="effect1_dropShadow_187_21" result="shape"/>
</filter>
</defs>
</svg>
