<svg width="102" height="92" viewBox="0 0 102 92" fill="none" xmlns="http://www.w3.org/2000/svg">
<g filter="url(#filter0_d_434_91)">
<circle cx="57" cy="47" r="43.5" fill="#EC68FD" stroke="white" stroke-width="3"/>
<path d="M39.8182 64.1822C39.5637 64.1822 39.3171 64.1265 39.0785 64.0151C38.8398 63.9037 38.641 63.7685 38.4819 63.6094C38.1 63.2594 37.9091 62.8219 37.9091 62.2969C37.9091 61.7719 38.0841 61.3185 38.4341 60.9367C39.0387 60.3003 39.7625 59.9185 40.6057 59.7912C41.4489 59.6639 42.3 59.6798 43.1591 59.8389C43.4137 59.9026 43.6523 59.9662 43.875 60.0298C44.0978 60.0935 44.2887 60.0458 44.4478 59.8867C44.6387 59.6958 44.7103 59.4571 44.6625 59.1707C44.6148 58.8844 44.5591 58.6139 44.4955 58.3594C44.3682 57.5003 44.3523 56.6491 44.4478 55.8059C44.5432 54.9628 44.8932 54.223 45.4978 53.5866C46.1023 52.9502 46.8262 52.5684 47.6694 52.4411C48.5125 52.3139 49.3637 52.3298 50.2228 52.4889C50.4773 52.5525 50.7239 52.6161 50.9625 52.6798C51.2012 52.7434 51.4 52.6957 51.5591 52.5366C51.75 52.3457 51.8137 52.107 51.75 51.8207C51.6864 51.5343 51.6228 51.2639 51.5591 51.0093C51.4318 50.1502 51.4159 49.2991 51.5114 48.4559C51.6068 47.6127 51.9568 46.8729 52.5614 46.2365C53.1659 45.6002 53.8898 45.2184 54.733 45.0911C55.5762 44.9638 56.4273 44.9797 57.2864 45.1388C57.5409 45.2024 57.7875 45.2661 58.0262 45.3297C58.2648 45.3934 58.4637 45.3456 58.6228 45.1865C58.8137 44.9956 58.8773 44.757 58.8137 44.4706C58.75 44.1843 58.6864 43.9138 58.6227 43.6592C58.4955 42.8001 58.4875 41.949 58.5989 41.1058C58.7102 40.2626 59.0682 39.5228 59.6727 38.8865C60.2773 38.2501 61.0012 37.8683 61.8443 37.741C62.6875 37.6137 63.5386 37.6296 64.3977 37.7887C64.6523 37.8524 64.8989 37.916 65.1375 37.9797C65.3761 38.0433 65.575 37.9956 65.7341 37.8365C65.925 37.6456 65.9886 37.4069 65.925 37.1206C65.8614 36.8342 65.7977 36.5637 65.7341 36.3092C65.6068 35.4501 65.5989 34.5989 65.7102 33.7558C65.8216 32.9126 66.1796 32.1728 66.7841 31.5364C67.3886 30.9 68.1125 30.5182 68.9557 30.3909C69.7989 30.2637 70.65 30.2796 71.5091 30.4387C71.7636 30.5023 72.0102 30.558 72.2489 30.6057C72.4875 30.6535 72.6864 30.5978 72.8455 30.4387C73.1955 30.0569 73.633 29.8659 74.158 29.8659C74.683 29.8659 75.1364 30.0409 75.5182 30.3909C75.9 30.741 76.0909 31.1785 76.0909 31.7035C76.0909 32.2285 75.9159 32.6819 75.5659 33.0637C74.9614 33.7001 74.2375 34.0898 73.3943 34.233C72.5511 34.3762 71.7 34.3683 70.8409 34.2092C70.5864 34.1455 70.3398 34.0819 70.1011 34.0183C69.8625 33.9546 69.6636 34.0023 69.5046 34.1614C69.3136 34.3523 69.25 34.591 69.3136 34.8774C69.3773 35.1637 69.4409 35.4342 69.5046 35.6887C69.6318 36.5478 69.6398 37.399 69.5284 38.2422C69.4171 39.0853 69.0591 39.8251 68.4546 40.4615C67.85 41.0979 67.1262 41.4797 66.283 41.607C65.4398 41.7342 64.5887 41.7183 63.7296 41.5592C63.475 41.4956 63.2364 41.432 63.0137 41.3683C62.7909 41.3047 62.6 41.3524 62.4409 41.5115C62.25 41.7024 62.1784 41.941 62.2262 42.2274C62.2739 42.5138 62.3296 42.7842 62.3932 43.0388C62.5205 43.8979 62.5364 44.749 62.4409 45.5922C62.3455 46.4354 61.9955 47.1752 61.3909 47.8116C60.7864 48.4161 60.0625 48.79 59.2193 48.9332C58.3762 49.0763 57.525 49.0684 56.6659 48.9093C56.4114 48.8457 56.1728 48.79 55.95 48.7422C55.7273 48.6945 55.5364 48.7502 55.3773 48.9093C55.1864 49.1002 55.1148 49.3309 55.1625 49.6013C55.2103 49.8718 55.2659 50.1343 55.3296 50.3889C55.4568 51.2479 55.4728 52.0991 55.3773 52.9423C55.2819 53.7855 54.9319 54.5253 54.3273 55.1616C53.7228 55.798 52.9909 56.1798 52.1319 56.3071C51.2728 56.4344 50.4137 56.4184 49.5546 56.2594C49.3 56.1957 49.0614 56.14 48.8387 56.0923C48.6159 56.0446 48.425 56.1003 48.2659 56.2594C48.075 56.4503 48.0114 56.681 48.075 56.9514C48.1387 57.2219 48.2023 57.4844 48.2659 57.7389C48.3932 58.598 48.4012 59.4492 48.2898 60.2923C48.1785 61.1355 47.8205 61.8753 47.216 62.5117C46.6114 63.1481 45.8875 63.5299 45.0444 63.6572C44.2012 63.7844 43.35 63.7685 42.491 63.6094C42.2364 63.5458 41.9978 63.4901 41.775 63.4424C41.5523 63.3946 41.3614 63.4503 41.2023 63.6094C41.0114 63.8003 40.7966 63.9435 40.558 64.039C40.3194 64.1344 40.0728 64.1822 39.8182 64.1822ZM45.5455 45.0911C42.9046 45.0911 40.6534 44.1604 38.7921 42.299C36.9307 40.4376 36 38.1865 36 35.5455C36 32.8728 36.9307 30.6137 38.792 28.7682C40.6534 26.9227 42.9045 26 45.5455 26C48.2182 26 50.4773 26.9227 52.3227 28.7682C54.1682 30.6137 55.0909 32.8728 55.0909 35.5455C55.0909 38.1865 54.1682 40.4376 52.3227 42.299C50.4773 44.1604 48.2182 45.0911 45.5455 45.0911ZM64.6364 68.0004C63.5864 68.0004 62.6876 67.6265 61.9398 66.8788C61.1921 66.131 60.8182 65.2322 60.8182 64.1822L60.8182 54.6366C60.8182 53.5866 61.1921 52.6877 61.9398 51.94C62.6875 51.1923 63.5864 50.8184 64.6364 50.8184H74.1818C75.2318 50.8184 76.1307 51.1923 76.8784 51.94C77.6262 52.6877 78 53.5866 78 54.6366L78 64.1822C78 65.2322 77.6262 66.131 76.8785 66.8788C76.1307 67.6265 75.2319 68.0004 74.1819 68.0004H64.6364Z" fill="white"/>
</g>
<defs>
<filter id="filter0_d_434_91" x="0" y="0" width="102" height="92" filterUnits="userSpaceOnUse" color-interpolation-filters="sRGB">
<feFlood flood-opacity="0" result="BackgroundImageFix"/>
<feColorMatrix in="SourceAlpha" type="matrix" values="0 0 0 0 0 0 0 0 0 0 0 0 0 0 0 0 0 0 127 0" result="hardAlpha"/>
<feOffset dx="-12" dy="-2"/>
<feComposite in2="hardAlpha" operator="out"/>
<feColorMatrix type="matrix" values="0 0 0 0 0 0 0 0 0 0 0 0 0 0 0 0 0 0 0.15 0"/>
<feBlend mode="normal" in2="BackgroundImageFix" result="effect1_dropShadow_434_91"/>
<feBlend mode="normal" in="SourceGraphic" in2="effect1_dropShadow_434_91" result="shape"/>
</filter>
</defs>
</svg>
