<svg width="102" height="92" viewBox="0 0 102 92" fill="none" xmlns="http://www.w3.org/2000/svg">
<g filter="url(#filter0_d_434_94)">
<circle cx="57" cy="47" r="45" fill="#8168FD"/>
<circle cx="57" cy="47" r="43.5" stroke="white" stroke-width="3"/>
</g>
<path d="M55.1965 65.2023L39.6409 56.2578C38.9372 55.8504 38.3909 55.3134 38.002 54.6467C37.6131 53.98 37.4187 53.2393 37.4187 52.4245V34.7577C37.4187 33.9428 37.6131 33.2021 38.002 32.5354C38.3909 31.8687 38.9372 31.3317 39.6409 30.9243L55.1965 21.9798C55.9002 21.5724 56.6409 21.3687 57.4187 21.3687C58.1965 21.3687 58.9372 21.5724 59.6409 21.9798L75.1965 30.9243C75.9002 31.3317 76.4465 31.8687 76.8354 32.5354C77.2243 33.2021 77.4187 33.9428 77.4187 34.7577V52.4245C77.4187 53.2393 77.2243 53.98 76.8354 54.6467C76.4465 55.3134 75.9002 55.8504 75.1965 56.2578L59.6409 65.2023C58.9372 65.6098 58.1965 65.8135 57.4187 65.8135C56.6409 65.8135 55.9002 65.6098 55.1965 65.2023ZM55.1965 44.8688V60.0912L57.4187 61.369L59.6409 60.0912V44.8688L72.9743 37.1466V34.8132L70.5854 33.4243L57.4187 41.0355L44.252 33.4243L41.8631 34.8132V37.1466L55.1965 44.8688Z" fill="white"/>
<defs>
<filter id="filter0_d_434_94" x="0" y="0" width="102" height="92" filterUnits="userSpaceOnUse" color-interpolation-filters="sRGB">
<feFlood flood-opacity="0" result="BackgroundImageFix"/>
<feColorMatrix in="SourceAlpha" type="matrix" values="0 0 0 0 0 0 0 0 0 0 0 0 0 0 0 0 0 0 127 0" result="hardAlpha"/>
<feOffset dx="-12" dy="-2"/>
<feComposite in2="hardAlpha" operator="out"/>
<feColorMatrix type="matrix" values="0 0 0 0 0 0 0 0 0 0 0 0 0 0 0 0 0 0 0.15 0"/>
<feBlend mode="normal" in2="BackgroundImageFix" result="effect1_dropShadow_434_94"/>
<feBlend mode="normal" in="SourceGraphic" in2="effect1_dropShadow_434_94" result="shape"/>
</filter>
</defs>
</svg>
