<svg width="216" height="36" viewBox="0 0 216 36" fill="none" xmlns="http://www.w3.org/2000/svg">
<path d="M5.96424 35.1618C5.77859 35.1813 5.59016 35.1743 5.39894 35.1408C5.21051 35.1338 5.02208 35.1268 4.83365 35.1198C4.34234 35.0373 3.98156 34.7937 3.75132 34.3889C3.45689 33.8836 3.38999 33.2471 3.55063 32.4794C3.735 31.6825 4.05619 30.6566 4.51421 29.4018C4.59799 29.1785 4.67899 28.9287 4.7572 28.6523C4.86193 28.3732 4.95479 28.1087 5.03578 27.8589C4.70495 28.0277 4.35736 28.2922 3.993 28.6522C3.65237 28.983 3.29988 29.3284 2.93552 29.6884C2.68983 29.902 2.40646 30.0122 2.08543 30.0191C1.73508 30.0023 1.44129 29.8857 1.20404 29.6693C0.990518 29.4236 0.893554 29.1389 0.913146 28.815C0.906218 28.494 1.00955 28.2016 1.22315 27.9378C1.56657 27.6336 1.92045 27.3015 2.28481 26.9414C2.67569 26.5786 3.07215 26.2688 3.47418 26.012C4.50299 25.3408 5.48218 25.0904 6.41175 25.2608C6.84444 25.2958 7.19056 25.5275 7.45011 25.9561C7.70688 26.3581 7.74937 26.8899 7.57758 27.5515C7.43231 28.2103 7.15162 29.1112 6.73549 30.2543C6.63633 30.5865 6.52392 30.9201 6.39825 31.2551C6.29909 31.5872 6.19854 31.9062 6.0966 32.2118C6.08123 32.3207 6.05121 32.4177 6.00653 32.5028C5.98837 32.5852 5.97021 32.6675 5.95205 32.7499C6.50062 32.6118 7.28023 32.2483 8.29088 31.6594C9.32527 31.0413 10.6808 29.9067 12.3574 28.2557C13.2578 27.3835 14.0682 26.5475 14.7886 25.7479C15.5061 24.9217 16.0785 24.2448 16.5057 23.7173C16.9329 23.1897 17.1465 22.9259 17.1465 22.9259C17.4257 22.5212 17.7977 22.3614 18.2625 22.4467C18.4775 22.4509 18.6596 22.5256 18.8089 22.6708C18.9555 22.7894 19.0755 22.9109 19.169 23.0351C19.3937 23.3869 19.4529 23.8231 19.3467 24.3437C19.2643 24.835 19.0548 25.648 18.7183 26.7828C18.5954 27.1443 18.4725 27.5058 18.3496 27.8672C18.2532 28.226 18.1541 28.5581 18.0521 28.8638C18.0368 28.9727 18.02 29.0683 18.0018 29.1506C18.0074 29.2037 17.9997 29.2581 17.9788 29.3139C18.4743 29.1814 18.9824 28.9135 19.5031 28.5102C20.0475 28.0776 20.5613 27.608 21.0443 27.1014C21.5538 26.592 21.9775 26.1587 22.3154 25.8014C22.5555 25.5348 22.8361 25.3981 23.1571 25.3912C23.4781 25.3842 23.7705 25.4876 24.0343 25.7012C24.2744 25.9441 24.3978 26.226 24.4048 26.5471C24.4382 26.8653 24.3349 27.1577 24.0948 27.4243C23.3479 28.2268 22.5703 28.9922 21.762 29.7207C20.9803 30.4464 20.1685 31.0144 19.3268 31.4246C18.5088 31.8055 17.6511 31.9359 16.7536 31.8157C16.3097 31.6747 15.9769 31.4415 15.755 31.1163C15.5568 30.7617 15.4606 30.3562 15.4663 29.8998C15.4984 29.4406 15.599 28.8669 15.768 28.1788C15.5042 28.4747 15.2257 28.7587 14.9325 29.0308C14.6659 29.3002 14.3755 29.5988 14.0614 29.9268C10.7054 33.2022 8.00632 34.9472 5.96424 35.1618ZM28.8813 29.254C28.7487 29.2679 28.6412 29.2658 28.5589 29.2476C28.1234 29.1862 27.8017 29.0591 27.5937 28.8664C27.4095 28.6445 27.2839 28.47 27.217 28.343C26.97 27.779 26.9736 27.1753 27.2277 26.5319C27.4791 25.862 27.8204 25.1558 28.2519 24.4133C28.3887 24.1844 28.5109 23.9436 28.6184 23.691C28.7496 23.4091 28.8585 23.1697 28.9451 22.9729C28.9688 22.9436 29.003 22.8864 29.0477 22.8012C28.8942 22.871 28.7036 22.9715 28.4761 23.1026C28.2751 23.231 28.0399 23.4166 27.7704 23.6595C27.3237 24.0014 26.8602 24.4389 26.38 24.972C25.897 25.4786 25.4035 26.0131 24.8995 26.5755C24.7781 26.6955 24.6447 26.8302 24.4996 26.9795C24.3809 27.1261 24.2622 27.2726 24.1436 27.4192C23.9272 27.6564 23.6599 27.7918 23.3416 27.8252C22.9941 27.8349 22.7003 27.7183 22.4602 27.4754C22.1964 27.2618 22.0611 26.9945 22.0542 26.6735C22.0445 26.3259 22.1478 26.0335 22.3642 25.7963C22.4828 25.6497 22.6148 25.5018 22.76 25.3525C22.8786 25.2059 22.9987 25.0726 23.1201 24.9526C23.888 24.0943 24.6495 23.3037 25.4047 22.5808C26.1572 21.8314 26.9131 21.2425 27.6725 20.8141C28.4319 20.3857 29.194 20.2386 29.9589 20.3727C30.4209 20.4314 30.7586 20.5836 30.9721 20.8293C31.2094 21.0457 31.351 21.2453 31.3971 21.4281C31.6971 21.9865 31.7095 22.6153 31.4345 23.3146C31.1566 23.9873 30.7929 24.7361 30.3433 25.5609C30.2958 25.6195 30.2393 25.7193 30.1736 25.8603C30.1318 25.972 30.0766 26.085 30.0082 26.1995C30.3893 25.9985 30.8855 25.7453 31.4969 25.4397C32.1083 25.1341 32.8468 24.7615 33.7122 24.322C34.0459 24.1797 34.3669 24.1727 34.6753 24.3012C34.981 24.4031 35.2036 24.6077 35.3431 24.9148C35.5064 25.1926 35.5252 25.4989 35.3995 25.8339C35.2976 26.1396 35.1077 26.374 34.8299 26.5373C34.0119 26.9182 33.2707 27.2643 32.6063 27.5754C31.9418 27.8866 31.3807 28.1601 30.9228 28.3959C30.6687 28.5298 30.4398 28.6478 30.236 28.7496C30.0559 28.8222 29.8891 28.8933 29.7356 28.9631C29.5555 29.0356 29.402 29.1054 29.2749 29.1724C29.1451 29.2128 29.0139 29.24 28.8813 29.254ZM38.092 31.7851C37.9063 31.8046 37.7179 31.7976 37.5267 31.764C37.3382 31.757 37.1498 31.75 36.9614 31.743C36.4701 31.6606 36.1093 31.417 35.879 31.0121C35.5846 30.5068 35.5177 29.8703 35.6783 29.1027C35.8627 28.3057 36.1839 27.2798 36.6419 26.0251C36.7257 25.8018 36.8067 25.5519 36.8849 25.2756C36.9896 24.9964 37.0825 24.7319 37.1635 24.4821C36.8327 24.651 36.4851 24.9154 36.1207 25.2755C35.7801 25.6062 35.4276 25.9516 35.0632 26.3117C34.8175 26.5252 34.5342 26.6354 34.2131 26.6423C33.8628 26.6255 33.569 26.5089 33.3318 26.2926C33.1182 26.0469 33.0213 25.7621 33.0409 25.4383C33.0339 25.1173 33.1373 24.8248 33.3509 24.5611C33.6943 24.2568 34.0482 23.9247 34.4125 23.5646C34.8034 23.2018 35.1999 22.892 35.6019 22.6352C36.6307 21.964 37.6099 21.7136 38.5395 21.8841C38.9722 21.919 39.3183 22.1508 39.5778 22.5793C39.8346 22.9814 39.8771 23.5132 39.7053 24.1747C39.56 24.8335 39.2793 25.7345 38.8632 26.8776C38.7641 27.2098 38.6516 27.5433 38.526 27.8783C38.4268 28.2105 38.3263 28.5294 38.2243 28.8351C38.209 28.9439 38.1789 29.0409 38.1342 29.1261C38.1161 29.2084 38.0979 29.2908 38.0798 29.3731C38.6283 29.235 39.408 28.8716 40.4186 28.2827C41.453 27.6645 42.8085 26.5299 44.4851 24.879C45.3855 24.0067 46.1959 23.1708 46.9163 22.3711C47.6338 21.5449 48.2062 20.868 48.6334 20.3405C49.0606 19.8129 49.2742 19.5492 49.2742 19.5492C49.5534 19.1444 49.9254 18.9847 50.3902 19.0699C50.6052 19.0741 50.7873 19.1488 50.9367 19.294C51.0832 19.4127 51.2032 19.5341 51.2967 19.6584C51.5214 20.0101 51.5806 20.4463 51.4745 20.967C51.392 21.4583 51.1825 22.2713 50.846 23.406C50.7231 23.7675 50.6002 24.129 50.4773 24.4905C50.3809 24.8492 50.2818 25.1814 50.1799 25.487C50.1645 25.5959 50.1477 25.6915 50.1296 25.7739C50.1351 25.8269 50.1274 25.8813 50.1065 25.9372C50.602 25.8047 51.1101 25.5367 51.6308 25.1334C52.1753 24.7008 52.689 24.2312 53.172 23.7246C53.6816 23.2152 54.1053 22.7819 54.4431 22.4246C54.6832 22.1581 54.9638 22.0213 55.2848 22.0144C55.6059 22.0075 55.8983 22.1108 56.162 22.3244C56.4021 22.5673 56.5256 22.8493 56.5325 23.1703C56.5659 23.4886 56.4626 23.781 56.2225 24.0475C55.4756 24.85 54.698 25.6155 53.8897 26.3439C53.108 27.0696 52.2962 27.6376 51.4545 28.0478C50.6365 28.4288 49.7788 28.5591 48.8813 28.4389C48.4375 28.2979 48.1046 28.0648 47.8827 27.7395C47.6846 27.3849 47.5883 26.9794 47.594 26.523C47.6262 26.0638 47.7267 25.4901 47.8957 24.802C47.6319 25.0979 47.3534 25.3819 47.0602 25.654C46.7936 25.9234 46.5032 26.222 46.1891 26.55C42.8331 29.8254 40.134 31.5704 38.092 31.7851ZM61.009 25.8772C60.8764 25.8912 60.7689 25.889 60.6866 25.8709C60.2511 25.8094 59.9294 25.6823 59.7215 25.4897C59.5373 25.2677 59.4117 25.0932 59.3447 24.9662C59.0977 24.4023 59.1013 23.7986 59.3554 23.1552C59.6068 22.4852 59.9482 21.779 60.3796 21.0365C60.5164 20.8076 60.6386 20.5669 60.7461 20.3142C60.8773 20.0323 60.9863 19.7929 61.0728 19.5961C61.0966 19.5668 61.1308 19.5096 61.1754 19.4245C61.0219 19.4942 60.8313 19.5947 60.6038 19.7259C60.4028 19.8543 60.1676 20.0399 59.8982 20.2827C59.4514 20.6246 58.988 21.0621 58.5077 21.5952C58.0247 22.1018 57.5312 22.6363 57.0272 23.1988C56.9058 23.3188 56.7725 23.4535 56.6273 23.6028C56.5086 23.7493 56.3899 23.8959 56.2713 24.0424C56.0549 24.2797 55.7876 24.415 55.4693 24.4485C55.1218 24.4582 54.828 24.3416 54.5879 24.0987C54.3242 23.8851 54.1888 23.6177 54.1819 23.2967C54.1722 22.9492 54.2755 22.6568 54.4919 22.4195C54.6106 22.273 54.7425 22.125 54.8877 21.9757C55.0063 21.8292 55.1264 21.6959 55.2478 21.5759C56.0157 20.7176 56.7772 19.927 57.5324 19.2041C58.2849 18.4546 59.0408 17.8657 59.8002 17.4373C60.5596 17.009 61.3217 16.8618 62.0866 16.9959C62.5486 17.0546 62.8863 17.2068 63.0999 17.4525C63.3371 17.6689 63.4787 17.8685 63.5248 18.0514C63.8248 18.6097 63.8373 19.2386 63.5622 19.9378C63.2843 20.6105 62.9206 21.3593 62.471 22.1842C62.4235 22.2428 62.367 22.3426 62.3014 22.4835C62.2595 22.5952 62.2043 22.7083 62.1359 22.8227C62.517 22.6218 63.0132 22.3685 63.6246 22.0629C64.2361 21.7573 64.9745 21.3848 65.84 20.9452C66.1736 20.8029 66.4946 20.796 66.8031 20.9244C67.1087 21.0264 67.3313 21.2309 67.4709 21.538C67.6341 21.8158 67.6529 22.1222 67.5272 22.4571C67.4253 22.7628 67.2354 22.9973 66.9576 23.1605C66.1396 23.5415 65.3984 23.8875 64.734 24.1987C64.0695 24.5098 63.5084 24.7833 63.0505 25.0191C62.7965 25.1531 62.5675 25.271 62.3637 25.3729C62.1837 25.4454 62.0168 25.5166 61.8633 25.5863C61.6832 25.6589 61.5297 25.7287 61.4027 25.7956C61.2728 25.8361 61.1416 25.8633 61.009 25.8772ZM89.5662 26.3749C89.3806 26.3944 89.1922 26.3874 89.0009 26.3539C88.8125 26.3469 88.6241 26.3399 88.4356 26.3329C87.9443 26.2504 87.5836 26.0068 87.3533 25.602C87.0589 25.0967 86.992 24.4602 87.1526 23.6925C87.337 22.8955 87.6582 21.8697 88.1162 20.6149C88.2 20.3916 88.281 20.1418 88.3592 19.8654C88.4639 19.5863 88.5568 19.3218 88.6378 19.0719C88.307 19.2408 87.9594 19.5052 87.595 19.8653C87.2544 20.196 86.9019 20.5415 86.5375 20.9015C86.2918 21.115 86.0085 21.2253 85.6874 21.2322C85.3371 21.2154 85.0433 21.0988 84.806 20.8824C84.5925 20.6367 84.4956 20.3519 84.5151 20.0281C84.5082 19.7071 84.6116 19.4147 84.8251 19.1509C85.1686 18.8467 85.5225 18.5145 85.8868 18.1545C86.2777 17.7916 86.6741 17.4818 87.0762 17.2251C88.105 16.5538 89.0842 16.3035 90.0137 16.4739C90.4464 16.5089 90.7926 16.7406 91.0521 17.1692C91.3089 17.5712 91.3514 18.103 91.1796 18.7646C91.0343 19.4234 90.7536 20.3243 90.3375 21.4674C90.2383 21.7996 90.1259 22.1332 90.0002 22.4681C89.9011 22.8003 89.8005 23.1192 89.6986 23.4249C89.6832 23.5338 89.6532 23.6308 89.6085 23.7159C89.5904 23.7983 89.5722 23.8806 89.5541 23.963C90.1026 23.8249 90.8822 23.4614 91.8929 22.8725C92.9273 22.2543 94.2828 21.1198 95.9594 19.4688C96.8598 18.5966 97.6702 17.7606 98.3905 16.9609C99.1081 16.1347 99.6805 15.4579 100.108 14.9303C100.535 14.4028 100.748 14.139 100.748 14.139C101.028 13.7343 101.4 13.5745 101.865 13.6597C102.079 13.664 102.262 13.7387 102.411 13.8838C102.557 14.0025 102.677 14.124 102.771 14.2482C102.996 14.6 103.055 15.0362 102.949 15.5568C102.866 16.0481 102.657 16.8611 102.32 17.9958C102.197 18.3573 102.074 18.7188 101.952 19.0803C101.855 19.439 101.756 19.7712 101.654 20.0769C101.639 20.1857 101.622 20.2814 101.604 20.3637C101.609 20.4167 101.602 20.4712 101.581 20.527C102.076 20.3945 102.584 20.1266 103.105 19.7233C103.65 19.2907 104.163 18.8211 104.646 18.3145C105.156 17.8051 105.58 17.3717 105.917 17.0145C106.157 16.7479 106.438 16.6112 106.759 16.6042C107.08 16.5973 107.373 16.7006 107.636 16.9142C107.876 17.1571 108 17.4391 108.007 17.7602C108.04 18.0784 107.937 18.3708 107.697 18.6374C106.95 19.4398 106.172 20.2053 105.364 20.9338C104.582 21.6595 103.771 22.2274 102.929 22.6377C102.111 23.0186 101.253 23.149 100.356 23.0288C99.9117 22.8877 99.5789 22.6546 99.357 22.3293C99.1588 21.9748 99.0626 21.5693 99.0683 21.1128C99.1004 20.6536 99.201 20.08 99.37 19.3919C99.1062 19.6877 98.8277 19.9717 98.5345 20.2439C98.2679 20.5132 97.9775 20.8119 97.6634 21.1398C94.3074 24.4153 91.6083 26.1603 89.5662 26.3749ZM112.483 20.4671C112.351 20.481 112.243 20.4789 112.161 20.4607C111.725 20.3992 111.404 20.2722 111.196 20.0795C111.012 19.8576 110.886 19.6831 110.819 19.556C110.572 18.9921 110.576 18.3884 110.83 17.745C111.081 17.075 111.422 16.3688 111.854 15.6263C111.991 15.3974 112.113 15.1567 112.22 14.9041C112.352 14.6221 112.461 14.3828 112.547 14.186C112.571 14.1567 112.605 14.0994 112.65 14.0143C112.496 14.0841 112.306 14.1845 112.078 14.3157C111.877 14.4441 111.642 14.6297 111.372 14.8725C110.926 15.2144 110.462 15.6519 109.982 16.1851C109.499 16.6917 109.005 17.2262 108.502 17.7886C108.38 17.9086 108.247 18.0433 108.102 18.1926C107.983 18.3392 107.864 18.4857 107.746 18.6322C107.529 18.8695 107.262 19.0048 106.944 19.0383C106.596 19.048 106.302 18.9314 106.062 18.6885C105.798 18.4749 105.663 18.2076 105.656 17.8866C105.646 17.539 105.75 17.2466 105.966 17.0093C106.085 16.8628 106.217 16.7149 106.362 16.5655C106.481 16.419 106.601 16.2857 106.722 16.1657C107.49 15.3074 108.251 14.5168 109.007 13.7939C109.759 13.0445 110.515 12.4556 111.274 12.0272C112.034 11.5988 112.796 11.4517 113.561 11.5858C114.023 11.6445 114.361 11.7967 114.574 12.0424C114.811 12.2587 114.953 12.4584 114.999 12.6412C115.299 13.1996 115.312 13.8284 115.036 14.5276C114.759 15.2004 114.395 15.9492 113.945 16.774C113.898 16.8326 113.841 16.9324 113.776 17.0734C113.734 17.185 113.679 17.2981 113.61 17.4125C113.991 17.2116 114.488 16.9583 115.099 16.6528C115.71 16.3472 116.449 15.9746 117.314 15.5351C117.648 15.3927 117.969 15.3858 118.277 15.5143C118.583 15.6162 118.806 15.8207 118.945 16.1278C119.108 16.4056 119.127 16.712 119.002 17.047C118.9 17.3526 118.71 17.5871 118.432 17.7504C117.614 18.1313 116.873 18.4773 116.208 18.7885C115.544 19.0997 114.983 19.3731 114.525 19.609C114.271 19.7429 114.042 19.8608 113.838 19.9627C113.658 20.0352 113.491 20.1064 113.338 20.1762C113.158 20.2487 113.004 20.3185 112.877 20.3855C112.747 20.4259 112.616 20.4531 112.483 20.4671ZM121.694 22.9981C121.508 23.0177 121.32 23.0107 121.129 22.9771C120.94 22.9701 120.752 22.9631 120.563 22.9561C120.072 22.8737 119.711 22.63 119.481 22.2252C119.187 21.7199 119.12 21.0834 119.28 20.3157C119.465 19.5188 119.786 18.4929 120.244 17.2382C120.328 17.0148 120.409 16.765 120.487 16.4887C120.592 16.2095 120.685 15.945 120.766 15.6952C120.435 15.864 120.087 16.1285 119.723 16.4885C119.382 16.8193 119.03 17.1647 118.665 17.5248C118.42 17.7383 118.136 17.8485 117.815 17.8554C117.465 17.8386 117.171 17.722 116.934 17.5056C116.72 17.2599 116.623 16.9752 116.643 16.6514C116.636 16.3303 116.739 16.0379 116.953 15.7742C117.296 15.4699 117.65 15.1378 118.015 14.7777C118.405 14.4149 118.802 14.1051 119.204 13.8483C120.233 13.1771 121.212 12.9267 122.141 13.0971C122.574 13.1321 122.92 13.3638 123.18 13.7924C123.437 14.1944 123.479 14.7262 123.307 15.3878C123.162 16.0466 122.881 16.9476 122.465 18.0906C122.366 18.4228 122.254 18.7564 122.128 19.0914C122.029 19.4236 121.928 19.7425 121.826 20.0482C121.811 20.157 121.781 20.254 121.736 20.3392C121.718 20.4215 121.7 20.5039 121.682 20.5862C122.23 20.4481 123.01 20.0846 124.021 19.4958C125.055 18.8776 126.41 17.743 128.087 16.092C128.988 15.2198 129.798 14.3839 130.518 13.5842C131.236 12.758 131.808 12.0811 132.235 11.5536C132.663 11.026 132.876 10.7623 132.876 10.7623C133.155 10.3575 133.527 10.1978 133.992 10.283C134.207 10.2872 134.389 10.3619 134.539 10.5071C134.685 10.6257 134.805 10.7472 134.899 10.8714C135.123 11.2232 135.183 11.6594 135.076 12.18C134.994 12.6713 134.785 13.4844 134.448 14.6191C134.325 14.9806 134.202 15.3421 134.079 15.7036C133.983 16.0623 133.884 16.3945 133.782 16.7001C133.766 16.809 133.75 16.9046 133.732 16.9869C133.737 17.04 133.729 17.0944 133.709 17.1502C134.204 17.0177 134.712 16.7498 135.233 16.3465C135.777 15.9139 136.291 15.4443 136.774 14.9377C137.284 14.4283 137.707 13.995 138.045 13.6377C138.285 13.3712 138.566 13.2344 138.887 13.2275C139.208 13.2205 139.5 13.3239 139.764 13.5375C140.004 13.7804 140.128 14.0624 140.134 14.3834C140.168 14.7016 140.065 14.994 139.824 15.2606C139.078 16.0631 138.3 16.8285 137.492 17.557C136.71 18.2827 135.898 18.8507 135.057 19.2609C134.239 19.6418 133.381 19.7722 132.483 19.652C132.039 19.511 131.707 19.2778 131.485 18.9526C131.287 18.598 131.19 18.1925 131.196 17.7361C131.228 17.2769 131.329 16.7032 131.498 16.0151C131.234 16.311 130.955 16.595 130.662 16.8671C130.396 17.1365 130.105 17.4351 129.791 17.7631C126.435 21.0385 123.736 22.7835 121.694 22.9981ZM144.611 17.0903C144.478 17.1042 144.371 17.1021 144.289 17.084C143.853 17.0225 143.531 16.8954 143.323 16.7028C143.139 16.4808 143.014 16.3063 142.947 16.1793C142.7 15.6153 142.703 15.0117 142.957 14.3682C143.209 13.6983 143.55 12.9921 143.982 12.2496C144.118 12.0207 144.241 11.7799 144.348 11.5273C144.479 11.2454 144.588 11.006 144.675 10.8092C144.699 10.7799 144.733 10.7227 144.777 10.6376C144.624 10.7073 144.433 10.8078 144.206 10.939C144.005 11.0673 143.77 11.2529 143.5 11.4958C143.053 11.8377 142.59 12.2752 142.11 12.8083C141.627 13.3149 141.133 13.8494 140.629 14.4118C140.508 14.5319 140.374 14.6665 140.229 14.8159C140.111 14.9624 139.992 15.1089 139.873 15.2555C139.657 15.4927 139.39 15.6281 139.071 15.6615C138.724 15.6712 138.43 15.5546 138.19 15.3117C137.926 15.0981 137.791 14.8308 137.784 14.5098C137.774 14.1622 137.878 13.8698 138.094 13.6326C138.213 13.486 138.344 13.3381 138.49 13.1888C138.608 13.0422 138.728 12.909 138.85 12.7889C139.618 11.9306 140.379 11.14 141.134 10.4171C141.887 9.66772 142.643 9.07881 143.402 8.65042C144.162 8.22203 144.924 8.07489 145.689 8.20901C146.151 8.26771 146.488 8.4199 146.702 8.66559C146.939 8.88198 147.081 9.0816 147.127 9.26446C147.427 9.82282 147.439 10.4516 147.164 11.1509C146.886 11.8236 146.523 12.5724 146.073 13.3972C146.026 13.4559 145.969 13.5557 145.903 13.6966C145.861 13.8083 145.806 13.9213 145.738 14.0358C146.119 13.8348 146.615 13.5816 147.227 13.276C147.838 12.9704 148.576 12.5978 149.442 12.1583C149.776 12.016 150.097 12.0091 150.405 12.1375C150.711 12.2395 150.933 12.444 151.073 12.7511C151.236 13.0289 151.255 13.3353 151.129 13.6702C151.027 13.9759 150.837 14.2104 150.56 14.3736C149.742 14.7545 149 15.1006 148.336 15.4117C147.672 15.7229 147.11 15.9964 146.653 16.2322C146.398 16.3662 146.17 16.4841 145.966 16.5859C145.786 16.6585 145.619 16.7296 145.465 16.7994C145.285 16.872 145.132 16.9417 145.005 17.0087C144.875 17.0492 144.744 17.0764 144.611 17.0903ZM153.822 19.6214C153.636 19.6409 153.448 19.6339 153.256 19.6004C153.068 19.5934 152.88 19.5863 152.691 19.5793C152.2 19.4969 151.839 19.2533 151.609 18.8485C151.314 18.3431 151.247 17.7066 151.408 16.939C151.592 16.142 151.914 15.1162 152.372 13.8614C152.455 13.6381 152.536 13.3883 152.615 13.1119C152.719 12.8328 152.812 12.5683 152.893 12.3184C152.562 12.4873 152.215 12.7517 151.85 13.1118C151.51 13.4425 151.157 13.7879 150.793 14.148C150.547 14.3615 150.264 14.4717 149.943 14.4787C149.593 14.4619 149.299 14.3453 149.061 14.1289C148.848 13.8832 148.751 13.5984 148.771 13.2746C148.764 12.9536 148.867 12.6612 149.081 12.3974C149.424 12.0932 149.778 11.761 150.142 11.401C150.533 11.0381 150.93 10.7283 151.332 10.4715C152.36 9.80033 153.34 9.54994 154.269 9.72037C154.702 9.75533 155.048 9.98709 155.308 10.4156C155.564 10.8177 155.607 11.3495 155.435 12.0111C155.29 12.6699 155.009 13.5708 154.593 14.7139C154.494 15.0461 154.381 15.3796 154.256 15.7146C154.157 16.0468 154.056 16.3657 153.954 16.6714C153.939 16.7803 153.909 16.8773 153.864 16.9624C153.846 17.0447 153.828 17.1271 153.809 17.2094C154.358 17.0714 155.138 16.7079 156.148 16.119C157.183 15.5008 158.538 14.3663 160.215 12.7153C161.115 11.8431 161.926 11.0071 162.646 10.2074C163.364 9.38123 163.936 8.70435 164.363 8.17681C164.79 7.64927 165.004 7.38549 165.004 7.38549C165.283 6.98076 165.655 6.821 166.12 6.90621C166.335 6.91043 166.517 6.98514 166.666 7.13032C166.813 7.24899 166.933 7.37044 167.026 7.49468C167.251 7.84646 167.31 8.28266 167.204 8.80327C167.122 9.29458 166.912 10.1076 166.576 11.2423C166.453 11.6038 166.33 11.9653 166.207 12.3268C166.111 12.6855 166.012 13.0177 165.91 13.3234C165.894 13.4322 165.877 13.5278 165.859 13.6102C165.865 13.6632 165.857 13.7177 165.836 13.7735C166.332 13.641 166.84 13.3731 167.361 12.9698C167.905 12.5371 168.419 12.0675 168.902 11.5609C169.411 11.0515 169.835 10.6182 170.173 10.261C170.413 9.99439 170.694 9.85765 171.015 9.85072C171.336 9.84379 171.628 9.94712 171.892 10.1607C172.132 10.4036 172.255 10.6856 172.262 11.0066C172.296 11.3249 172.192 11.6173 171.952 11.8838C171.205 12.6863 170.428 13.4518 169.619 14.1803C168.838 14.906 168.026 15.4739 167.184 15.8841C166.366 16.2651 165.508 16.3954 164.611 16.2753C164.167 16.1342 163.834 15.9011 163.612 15.5758C163.414 15.2212 163.318 14.8158 163.324 14.3593C163.356 13.9001 163.456 13.3265 163.625 12.6384C163.362 12.9342 163.083 13.2182 162.79 13.4904C162.523 13.7597 162.233 14.0584 161.919 14.3863C158.563 17.6617 155.864 19.4068 153.822 19.6214ZM174.994 17.3961C174.808 17.4156 174.62 17.4086 174.429 17.375C174.24 17.368 174.052 17.361 173.864 17.354C173.372 17.2716 173.011 17.028 172.781 16.6232C172.487 16.1178 172.42 15.4813 172.581 14.7137C172.765 13.9167 173.086 12.8908 173.544 11.6361C173.628 11.4128 173.709 11.1629 173.787 10.8866C173.892 10.6074 173.985 10.343 174.066 10.0931C173.735 10.262 173.387 10.5264 173.023 10.8865C172.682 11.2172 172.33 11.5626 171.965 11.9227C171.72 12.1362 171.436 12.2464 171.115 12.2533C170.765 12.2365 170.471 12.1199 170.234 11.9036C170.02 11.6579 169.923 11.3731 169.943 11.0493C169.936 10.7283 170.039 10.4359 170.253 10.1721C170.596 9.86785 170.95 9.5357 171.315 9.17565C171.706 8.8128 172.102 8.503 172.504 8.24623C173.533 7.57502 174.512 7.32462 175.442 7.49506C175.874 7.53002 176.22 7.76178 176.48 8.19033C176.737 8.59236 176.779 9.12416 176.607 9.78574C176.462 10.4445 176.181 11.3455 175.765 12.4886C175.666 12.8208 175.554 13.1543 175.428 13.4893C175.329 13.8215 175.228 14.1404 175.126 14.4461C175.111 14.5549 175.081 14.652 175.036 14.7371C175.018 14.8194 175 14.9018 174.982 14.9841C175.531 14.846 176.31 14.4826 177.321 13.8937C178.355 13.2755 179.711 12.1409 181.387 10.49C182.288 9.61775 183.098 8.78179 183.818 7.98211C184.536 7.15591 185.108 6.47904 185.536 5.9515C185.963 5.42395 186.176 5.16018 186.176 5.16018C186.456 4.75544 186.828 4.59568 187.292 4.6809C187.507 4.68512 187.689 4.75982 187.839 4.90501C187.985 5.02368 188.105 5.14513 188.199 5.26937C188.424 5.62115 188.483 6.05734 188.377 6.57796C188.294 7.06927 188.085 7.88228 187.748 9.01702C187.625 9.37851 187.502 9.74 187.379 10.1015C187.283 10.4602 187.184 10.7924 187.082 11.098C187.067 11.2069 187.05 11.3025 187.032 11.3849C187.037 11.4379 187.03 11.4923 187.009 11.5482C187.504 11.4157 188.012 11.1477 188.533 10.7444C189.077 10.3118 189.591 9.84222 190.074 9.33562C190.584 8.82624 191.007 8.39291 191.345 8.03564C191.585 7.76908 191.866 7.63233 192.187 7.62541C192.508 7.61848 192.8 7.72181 193.064 7.93541C193.304 8.17832 193.428 8.46029 193.435 8.78132C193.468 9.09957 193.365 9.39197 193.125 9.65853C192.378 10.461 191.6 11.2265 190.792 11.9549C190.01 12.6806 189.198 13.2486 188.357 13.6588C187.539 14.0398 186.681 14.1701 185.783 14.05C185.34 13.9089 185.007 13.6758 184.785 13.3505C184.587 12.9959 184.49 12.5904 184.496 12.134C184.528 11.6748 184.629 11.1011 184.798 10.413C184.534 10.7089 184.256 10.9929 183.962 11.265C183.696 11.5344 183.405 11.8331 183.091 12.161C179.735 15.4364 177.036 17.1814 174.994 17.3961ZM196.167 15.1708C195.981 15.1903 195.792 15.1833 195.601 15.1497C195.413 15.1427 195.224 15.1357 195.036 15.1287C194.545 15.0463 194.184 14.8027 193.954 14.3978C193.659 13.8925 193.592 13.256 193.753 12.4884C193.937 11.6914 194.259 10.6655 194.717 9.41078C194.8 9.18746 194.881 8.93763 194.96 8.66127C195.064 8.38213 195.157 8.11764 195.238 7.8678C194.907 8.03664 194.56 8.30109 194.195 8.66115C193.855 8.9919 193.502 9.33731 193.138 9.69736C192.892 9.91088 192.609 10.0211 192.288 10.028C191.937 10.0112 191.644 9.89464 191.406 9.67825C191.193 9.43256 191.096 9.1478 191.115 8.82398C191.109 8.50294 191.212 8.21054 191.425 7.94677C191.769 7.64254 192.123 7.31039 192.487 6.95033C192.878 6.58749 193.274 6.27768 193.676 6.02092C194.705 5.3497 195.684 5.09931 196.614 5.26974C197.047 5.30471 197.393 5.53646 197.652 5.96501C197.909 6.36704 197.952 6.89885 197.78 7.56043C197.635 8.21922 197.354 9.12017 196.938 10.2633C196.839 10.5954 196.726 10.929 196.601 11.264C196.501 11.5962 196.401 11.9151 196.299 12.2208C196.284 12.3296 196.254 12.4266 196.209 12.5118C196.191 12.5941 196.173 12.6765 196.154 12.7588C196.703 12.6207 197.483 12.2572 198.493 11.6684C199.528 11.0502 200.883 9.91563 202.56 8.26466C203.46 7.39243 204.271 6.55648 204.991 5.7568C205.708 4.9306 206.281 4.25373 206.708 3.72618C207.135 3.19864 207.349 2.93487 207.349 2.93487C207.628 2.53013 208 2.37037 208.465 2.45559C208.68 2.45981 208.862 2.53451 209.011 2.6797C209.158 2.79836 209.278 2.91982 209.371 3.04406C209.596 3.39583 209.655 3.83203 209.549 4.35264C209.467 4.84395 209.257 5.65697 208.921 6.7917C208.798 7.15319 208.675 7.51469 208.552 7.87618C208.456 8.23488 208.356 8.56707 208.254 8.87273C208.239 8.9816 208.222 9.07721 208.204 9.15956C208.21 9.2126 208.202 9.26704 208.181 9.32286C208.677 9.19034 209.185 8.92243 209.705 8.51912C210.25 8.08651 210.764 7.61691 211.247 7.11031C211.756 6.60092 212.18 6.1676 212.518 5.81032C212.758 5.54376 213.038 5.40702 213.359 5.40009C213.68 5.39316 213.973 5.4965 214.237 5.7101C214.477 5.953 214.6 6.23497 214.607 6.55601C214.641 6.87426 214.537 7.16666 214.297 7.43322C213.55 8.23568 212.773 9.00116 211.964 9.72964C211.183 10.4553 210.371 11.0233 209.529 11.4335C208.711 11.8144 207.853 11.9448 206.956 11.8246C206.512 11.6836 206.179 11.4504 205.957 11.1252C205.759 10.7706 205.663 10.3651 205.669 9.9087C205.701 9.44949 205.801 8.87583 205.97 8.18773C205.706 8.4836 205.428 8.7676 205.135 9.03974C204.868 9.30908 204.578 9.60774 204.264 9.9357C200.908 13.2111 198.209 14.9561 196.167 15.1708Z" fill="#427329"/>
</svg>
