<svg width="286" height="13" viewBox="0 0 286 13" fill="none" xmlns="http://www.w3.org/2000/svg">
<path d="M7.15893 9.28343C7.0256 9.28343 6.91893 9.2701 6.83893 9.24343C6.41226 9.13677 6.1056 8.97677 5.91893 8.76343C5.75893 8.52343 5.65226 8.33677 5.59893 8.20343C5.41226 7.61677 5.47893 7.01677 5.79893 6.40343C6.11893 5.76343 6.53226 5.09677 7.03893 4.40343C7.19893 4.1901 7.3456 3.96343 7.47893 3.72343C7.63893 3.45677 7.77226 3.2301 7.87893 3.04343C7.9056 3.01677 7.9456 2.96343 7.99893 2.88343C7.83893 2.93677 7.63893 3.01677 7.39893 3.12343C7.1856 3.2301 6.93226 3.3901 6.63893 3.60343C6.15893 3.89677 5.65226 4.28343 5.11893 4.76343C4.58559 5.21677 4.03893 5.69677 3.47893 6.20343C3.34559 6.3101 3.19893 6.4301 3.03893 6.56343C2.90559 6.69677 2.77226 6.8301 2.63893 6.96343C2.39893 7.17677 2.11893 7.28343 1.79893 7.28343C1.45226 7.25677 1.17226 7.1101 0.958928 6.84343C0.718928 6.60343 0.612262 6.32343 0.638928 6.00343C0.665595 5.65677 0.798928 5.37677 1.03893 5.16343C1.17226 5.0301 1.31893 4.89677 1.47893 4.76343C1.61226 4.6301 1.74559 4.5101 1.87893 4.40343C2.73226 3.6301 3.57226 2.92343 4.39893 2.28343C5.2256 1.61677 6.03893 1.1101 6.83893 0.763432C7.63893 0.416765 8.41226 0.350098 9.15893 0.563432C9.61226 0.670099 9.93226 0.856766 10.1189 1.12343C10.3323 1.36343 10.4523 1.57677 10.4789 1.76343C10.7189 2.3501 10.6656 2.97677 10.3189 3.64343C9.97226 4.28343 9.53226 4.9901 8.99893 5.76343C8.94559 5.81677 8.87893 5.9101 8.79893 6.04343C8.7456 6.1501 8.67893 6.25677 8.59893 6.36343C8.99893 6.20343 9.51893 6.00343 10.1589 5.76343C10.7989 5.52343 11.5723 5.2301 12.4789 4.88343C12.8256 4.77677 13.1456 4.80343 13.4389 4.96343C13.7323 5.09677 13.9323 5.32343 14.0389 5.64343C14.1723 5.93677 14.1589 6.24343 13.9989 6.56343C13.8656 6.85677 13.6523 7.0701 13.3589 7.20343C12.5056 7.49677 11.7323 7.76343 11.0389 8.00343C10.3456 8.24343 9.75893 8.45677 9.27893 8.64343C9.01226 8.7501 8.77226 8.84343 8.55893 8.92343C8.37226 8.97677 8.19893 9.0301 8.03893 9.08343C7.85226 9.13677 7.69226 9.1901 7.55893 9.24343C7.4256 9.2701 7.29226 9.28343 7.15893 9.28343ZM17.8946 12.8434C17.7612 12.8434 17.6279 12.8301 17.4946 12.8034C17.3612 12.8034 17.2146 12.7901 17.0546 12.7634C16.7346 12.6568 16.4679 12.4301 16.2546 12.0834C16.1479 11.8701 16.0946 11.5768 16.0946 11.2034C16.0946 10.8301 16.2146 10.2168 16.4546 9.36343C16.6946 8.5101 17.0812 7.24343 17.6146 5.56343C17.0279 5.77677 16.3479 6.0301 15.5746 6.32343C14.8279 6.61677 14.0546 6.9101 13.2546 7.20343C12.9612 7.3101 12.6679 7.29677 12.3746 7.16343C12.0546 7.00343 11.8279 6.76343 11.6946 6.44343C11.5879 6.1501 11.6146 5.85677 11.7746 5.56343C11.9079 5.24343 12.1346 5.01677 12.4546 4.88343C13.6012 4.45677 14.6679 4.05677 15.6546 3.68343C16.6679 3.3101 17.4946 3.00343 18.1346 2.76343C18.7746 2.52343 19.0946 2.40343 19.0946 2.40343C19.3612 2.29677 19.6146 2.28343 19.8546 2.36343C20.2012 2.44343 20.4546 2.64343 20.6146 2.96343C20.7479 3.20343 20.7879 3.41677 20.7346 3.60343C20.7079 3.7901 20.6679 3.9901 20.6146 4.20343C20.5612 4.3101 20.5212 4.4301 20.4946 4.56343C20.4679 4.6701 20.4279 4.80343 20.3746 4.96343C20.1879 5.41677 19.9879 5.97677 19.7746 6.64343C19.5879 7.28343 19.3879 7.93677 19.1746 8.60343C19.0412 8.97677 18.9346 9.29677 18.8546 9.56343C18.7746 9.8301 18.7079 10.0701 18.6546 10.2834C19.1612 10.1768 19.8946 9.8701 20.8546 9.36343C21.6812 8.9101 22.5612 8.3901 23.4946 7.80343C24.4546 7.1901 25.4279 6.5501 26.4146 5.88343C26.6279 5.7501 26.8412 5.61677 27.0546 5.48343C27.2946 5.3501 27.5079 5.20343 27.6946 5.04343C27.9879 4.85677 28.2946 4.80343 28.6146 4.88343C28.9612 4.93677 29.2279 5.1101 29.4146 5.40343C29.6012 5.6701 29.6546 5.96343 29.5746 6.28343C29.5212 6.60343 29.3479 6.85677 29.0546 7.04343C28.8412 7.20343 28.6146 7.36343 28.3746 7.52343C28.1612 7.65677 27.9346 7.80343 27.6946 7.96343C26.6812 8.6301 25.6946 9.2701 24.7346 9.88343C23.7746 10.4968 22.8679 11.0301 22.0146 11.4834C20.2812 12.3901 18.9079 12.8434 17.8946 12.8434ZM37.5605 10.4834C37.2405 10.4834 36.9738 10.3901 36.7605 10.2034C36.3338 9.85677 36.2138 9.41677 36.4005 8.88343C36.4005 8.85677 36.4938 8.53677 36.6805 7.92343C36.8938 7.3101 37.1338 6.61677 37.4005 5.84343C37.5338 5.3901 37.6538 5.00343 37.7605 4.68343C37.8672 4.33677 37.9605 4.0301 38.0405 3.76343C37.3205 4.0301 36.4405 4.36343 35.4005 4.76343C34.3605 5.13677 33.2672 5.53677 32.1205 5.96343C31.0005 6.3901 29.9072 6.80343 28.8405 7.20343C28.5472 7.3101 28.2538 7.29677 27.9605 7.16343C27.6405 7.00343 27.4138 6.76343 27.2805 6.44343C27.1738 6.1501 27.2005 5.85677 27.3605 5.56343C27.4938 5.24343 27.7205 5.01677 28.0405 4.88343C29.2405 4.45677 30.4805 4.01677 31.7605 3.56343C33.0405 3.08343 34.2272 2.64343 35.3205 2.24343C36.4138 1.81677 37.3072 1.4701 38.0005 1.20343C38.6938 0.936765 39.0405 0.803432 39.0405 0.803432C39.1738 0.776765 39.3072 0.763432 39.4405 0.763432C39.5738 0.736766 39.6938 0.750099 39.8005 0.803432C40.1738 0.856765 40.4405 1.0701 40.6005 1.44343C40.7338 1.65677 40.7872 1.93677 40.7605 2.28343C40.7605 2.60343 40.6938 3.0701 40.5605 3.68343C40.4805 4.0301 40.3738 4.41677 40.2405 4.84343C40.1338 5.24343 39.9872 5.7101 39.8005 6.24343C39.7738 6.3501 39.7472 6.44343 39.7205 6.52343C39.6938 6.60343 39.6672 6.69677 39.6405 6.80343C40.7072 6.21677 42.0138 5.60343 43.5605 4.96343C43.8538 4.8301 44.1472 4.8301 44.4405 4.96343C44.7605 5.0701 44.9738 5.2701 45.0805 5.56343C45.2405 5.85677 45.2538 6.16343 45.1205 6.48343C44.9872 6.80343 44.7738 7.0301 44.4805 7.16343C43.2805 7.69677 42.2005 8.20343 41.2405 8.68343C40.3072 9.16343 39.5605 9.5501 39.0005 9.84343C38.4405 10.1368 38.1605 10.2834 38.1605 10.2834C38.0005 10.4168 37.8005 10.4834 37.5605 10.4834ZM49.3074 9.28343C49.174 9.28343 49.0674 9.2701 48.9874 9.24343C48.5607 9.13677 48.254 8.97677 48.0674 8.76343C47.9074 8.52343 47.8007 8.33677 47.7474 8.20343C47.5607 7.61677 47.6274 7.01677 47.9474 6.40343C48.2674 5.76343 48.6807 5.09677 49.1874 4.40343C49.3474 4.1901 49.494 3.96343 49.6274 3.72343C49.7874 3.45677 49.9207 3.2301 50.0274 3.04343C50.054 3.01677 50.094 2.96343 50.1474 2.88343C49.9874 2.93677 49.7874 3.01677 49.5474 3.12343C49.334 3.2301 49.0807 3.3901 48.7874 3.60343C48.3074 3.89677 47.8007 4.28343 47.2674 4.76343C46.734 5.21677 46.1874 5.69677 45.6274 6.20343C45.494 6.3101 45.3474 6.4301 45.1874 6.56343C45.054 6.69677 44.9207 6.8301 44.7874 6.96343C44.5474 7.17677 44.2674 7.28343 43.9474 7.28343C43.6007 7.25677 43.3207 7.1101 43.1074 6.84343C42.8674 6.60343 42.7607 6.32343 42.7874 6.00343C42.814 5.65677 42.9474 5.37677 43.1874 5.16343C43.3207 5.0301 43.4674 4.89677 43.6274 4.76343C43.7607 4.6301 43.894 4.5101 44.0274 4.40343C44.8807 3.6301 45.7207 2.92343 46.5474 2.28343C47.374 1.61677 48.1874 1.1101 48.9874 0.763432C49.7874 0.416765 50.5607 0.350098 51.3074 0.563432C51.7607 0.670099 52.0807 0.856766 52.2674 1.12343C52.4807 1.36343 52.6007 1.57677 52.6274 1.76343C52.8674 2.3501 52.814 2.97677 52.4674 3.64343C52.1207 4.28343 51.6807 4.9901 51.1474 5.76343C51.094 5.81677 51.0274 5.9101 50.9474 6.04343C50.894 6.1501 50.8274 6.25677 50.7474 6.36343C51.1474 6.20343 51.6674 6.00343 52.3074 5.76343C52.9474 5.52343 53.7207 5.2301 54.6274 4.88343C54.974 4.77677 55.294 4.80343 55.5874 4.96343C55.8807 5.09677 56.0807 5.32343 56.1874 5.64343C56.3207 5.93677 56.3074 6.24343 56.1474 6.56343C56.014 6.85677 55.8007 7.0701 55.5074 7.20343C54.654 7.49677 53.8807 7.76343 53.1874 8.00343C52.494 8.24343 51.9074 8.45677 51.4274 8.64343C51.1607 8.7501 50.9207 8.84343 50.7074 8.92343C50.5207 8.97677 50.3474 9.0301 50.1874 9.08343C50.0007 9.13677 49.8407 9.1901 49.7074 9.24343C49.574 9.2701 49.4407 9.28343 49.3074 9.28343ZM58.203 12.7634C58.0163 12.7634 57.8297 12.7368 57.643 12.6834C57.4563 12.6568 57.2697 12.6301 57.083 12.6034C56.603 12.4701 56.2697 12.1901 56.083 11.7634C55.843 11.2301 55.843 10.5901 56.083 9.84343C56.3497 9.0701 56.7763 8.08343 57.363 6.88343C57.4697 6.6701 57.5763 6.4301 57.683 6.16343C57.8163 5.89677 57.9363 5.64343 58.043 5.40343C57.6963 5.53677 57.323 5.76343 56.923 6.08343C56.5497 6.37677 56.163 6.68343 55.763 7.00343C55.4963 7.1901 55.203 7.2701 54.883 7.24343C54.5363 7.1901 54.2563 7.04343 54.043 6.80343C53.8563 6.53677 53.7897 6.24343 53.843 5.92343C53.8697 5.60343 54.003 5.32343 54.243 5.08343C54.6163 4.81677 55.003 4.52343 55.403 4.20343C55.8297 3.88343 56.2563 3.61677 56.683 3.40343C57.7763 2.84343 58.7763 2.69677 59.683 2.96343C60.1097 3.04343 60.4297 3.3101 60.643 3.76343C60.8563 4.1901 60.843 4.72343 60.603 5.36343C60.3897 6.00343 60.0163 6.8701 59.483 7.96343C59.3497 8.28343 59.203 8.60343 59.043 8.92343C58.9097 9.24343 58.7763 9.5501 58.643 9.84343C58.6163 9.9501 58.5763 10.0434 58.523 10.1234C58.4963 10.2034 58.4697 10.2834 58.443 10.3634C59.003 10.2834 59.8163 10.0034 60.883 9.52343C61.9763 9.01677 63.443 8.0301 65.283 6.56343C66.2697 5.7901 67.163 5.04343 67.963 4.32343C68.763 3.57677 69.403 2.96343 69.883 2.48343C70.363 2.00343 70.603 1.76343 70.603 1.76343C70.923 1.3901 71.3097 1.2701 71.763 1.40343C71.9763 1.4301 72.1497 1.52343 72.283 1.68343C72.4163 1.81677 72.523 1.9501 72.603 2.08343C72.7897 2.45677 72.803 2.89677 72.643 3.40343C72.5097 3.88343 72.2163 4.6701 71.763 5.76343C71.603 6.1101 71.443 6.45677 71.283 6.80343C71.1497 7.1501 71.0163 7.4701 70.883 7.76343C70.8563 7.8701 70.8297 7.96343 70.803 8.04343C70.803 8.09677 70.7897 8.1501 70.763 8.20343C71.2697 8.12343 71.803 7.9101 72.363 7.56343C72.9497 7.1901 73.5097 6.77677 74.043 6.32343C74.603 5.8701 75.0697 5.48343 75.443 5.16343C75.7097 4.92343 76.003 4.81677 76.323 4.84343C76.643 4.8701 76.923 5.00343 77.163 5.24343C77.3763 5.5101 77.4697 5.80343 77.443 6.12343C77.443 6.44343 77.3097 6.72343 77.043 6.96343C76.2163 7.68343 75.363 8.36343 74.483 9.00343C73.6297 9.64343 72.763 10.1234 71.883 10.4434C71.0297 10.7368 70.163 10.7768 69.283 10.5634C68.8563 10.3768 68.5497 10.1101 68.363 9.76343C68.203 9.3901 68.1497 8.97677 68.203 8.52343C68.283 8.0701 68.443 7.5101 68.683 6.84343C68.3897 7.1101 68.083 7.36343 67.763 7.60343C67.4697 7.84343 67.1497 8.1101 66.803 8.40343C63.123 11.3101 60.2563 12.7634 58.203 12.7634ZM81.6121 9.28343C81.4787 9.28343 81.3721 9.2701 81.2921 9.24343C80.8654 9.13677 80.5587 8.97677 80.3721 8.76343C80.2121 8.52343 80.1054 8.33677 80.0521 8.20343C79.8654 7.61677 79.9321 7.01677 80.2521 6.40343C80.5721 5.76343 80.9854 5.09677 81.4921 4.40343C81.6521 4.1901 81.7987 3.96343 81.9321 3.72343C82.0921 3.45677 82.2254 3.2301 82.3321 3.04343C82.3587 3.01677 82.3987 2.96343 82.4521 2.88343C82.2921 2.93677 82.0921 3.01677 81.8521 3.12343C81.6387 3.2301 81.3854 3.3901 81.0921 3.60343C80.6121 3.89677 80.1054 4.28343 79.5721 4.76343C79.0387 5.21677 78.4921 5.69677 77.9321 6.20343C77.7987 6.3101 77.6521 6.4301 77.4921 6.56343C77.3587 6.69677 77.2254 6.8301 77.0921 6.96343C76.8521 7.17677 76.5721 7.28343 76.2521 7.28343C75.9054 7.25677 75.6254 7.1101 75.4121 6.84343C75.1721 6.60343 75.0654 6.32343 75.0921 6.00343C75.1187 5.65677 75.2521 5.37677 75.4921 5.16343C75.6254 5.0301 75.7721 4.89677 75.9321 4.76343C76.0654 4.6301 76.1987 4.5101 76.3321 4.40343C77.1854 3.6301 78.0254 2.92343 78.8521 2.28343C79.6787 1.61677 80.4921 1.1101 81.2921 0.763432C82.0921 0.416765 82.8654 0.350098 83.6121 0.563432C84.0654 0.670099 84.3854 0.856766 84.5721 1.12343C84.7854 1.36343 84.9054 1.57677 84.9321 1.76343C85.1721 2.3501 85.1187 2.97677 84.7721 3.64343C84.4254 4.28343 83.9854 4.9901 83.4521 5.76343C83.3987 5.81677 83.3321 5.9101 83.2521 6.04343C83.1987 6.1501 83.1321 6.25677 83.0521 6.36343C83.4521 6.20343 83.9721 6.00343 84.6121 5.76343C85.2521 5.52343 86.0254 5.2301 86.9321 4.88343C87.2787 4.77677 87.5987 4.80343 87.8921 4.96343C88.1854 5.09677 88.3854 5.32343 88.4921 5.64343C88.6254 5.93677 88.6121 6.24343 88.4521 6.56343C88.3187 6.85677 88.1054 7.0701 87.8121 7.20343C86.9587 7.49677 86.1854 7.76343 85.4921 8.00343C84.7987 8.24343 84.2121 8.45677 83.7321 8.64343C83.4654 8.7501 83.2254 8.84343 83.0121 8.92343C82.8254 8.97677 82.6521 9.0301 82.4921 9.08343C82.3054 9.13677 82.1454 9.1901 82.0121 9.24343C81.8787 9.2701 81.7454 9.28343 81.6121 9.28343ZM90.5077 12.7634C90.321 12.7634 90.1343 12.7368 89.9477 12.6834C89.761 12.6568 89.5743 12.6301 89.3877 12.6034C88.9077 12.4701 88.5743 12.1901 88.3877 11.7634C88.1477 11.2301 88.1477 10.5901 88.3877 9.84343C88.6543 9.0701 89.081 8.08343 89.6677 6.88343C89.7743 6.6701 89.881 6.4301 89.9877 6.16343C90.121 5.89677 90.241 5.64343 90.3477 5.40343C90.001 5.53677 89.6277 5.76343 89.2277 6.08343C88.8543 6.37677 88.4677 6.68343 88.0677 7.00343C87.801 7.1901 87.5077 7.2701 87.1877 7.24343C86.841 7.1901 86.561 7.04343 86.3477 6.80343C86.161 6.53677 86.0943 6.24343 86.1477 5.92343C86.1743 5.60343 86.3077 5.32343 86.5477 5.08343C86.921 4.81677 87.3077 4.52343 87.7077 4.20343C88.1343 3.88343 88.561 3.61677 88.9877 3.40343C90.081 2.84343 91.081 2.69677 91.9877 2.96343C92.4143 3.04343 92.7343 3.3101 92.9477 3.76343C93.161 4.1901 93.1477 4.72343 92.9077 5.36343C92.6943 6.00343 92.321 6.8701 91.7877 7.96343C91.6543 8.28343 91.5077 8.60343 91.3477 8.92343C91.2143 9.24343 91.081 9.5501 90.9477 9.84343C90.921 9.9501 90.881 10.0434 90.8277 10.1234C90.801 10.2034 90.7743 10.2834 90.7477 10.3634C91.3077 10.2834 92.121 10.0034 93.1877 9.52343C94.281 9.01677 95.7477 8.0301 97.5877 6.56343C98.5743 5.7901 99.4677 5.04343 100.268 4.32343C101.068 3.57677 101.708 2.96343 102.188 2.48343C102.668 2.00343 102.908 1.76343 102.908 1.76343C103.228 1.3901 103.614 1.2701 104.068 1.40343C104.281 1.4301 104.454 1.52343 104.588 1.68343C104.721 1.81677 104.828 1.9501 104.908 2.08343C105.094 2.45677 105.108 2.89677 104.948 3.40343C104.814 3.88343 104.521 4.6701 104.068 5.76343C103.908 6.1101 103.748 6.45677 103.588 6.80343C103.454 7.1501 103.321 7.4701 103.188 7.76343C103.161 7.8701 103.134 7.96343 103.108 8.04343C103.108 8.09677 103.094 8.1501 103.068 8.20343C103.574 8.12343 104.108 7.9101 104.668 7.56343C105.254 7.1901 105.814 6.77677 106.348 6.32343C106.908 5.8701 107.374 5.48343 107.748 5.16343C108.014 4.92343 108.308 4.81677 108.628 4.84343C108.948 4.8701 109.228 5.00343 109.468 5.24343C109.681 5.5101 109.774 5.80343 109.748 6.12343C109.748 6.44343 109.614 6.72343 109.348 6.96343C108.521 7.68343 107.668 8.36343 106.788 9.00343C105.934 9.64343 105.068 10.1234 104.188 10.4434C103.334 10.7368 102.468 10.7768 101.588 10.5634C101.161 10.3768 100.854 10.1101 100.668 9.76343C100.508 9.3901 100.454 8.97677 100.508 8.52343C100.588 8.0701 100.748 7.5101 100.988 6.84343C100.694 7.1101 100.388 7.36343 100.068 7.60343C99.7743 7.84343 99.4543 8.1101 99.1077 8.40343C95.4277 11.3101 92.561 12.7634 90.5077 12.7634ZM133.37 9.28343C133.237 9.28343 133.13 9.2701 133.05 9.24343C132.623 9.13677 132.317 8.97677 132.13 8.76343C131.97 8.52343 131.863 8.33677 131.81 8.20343C131.623 7.61677 131.69 7.01677 132.01 6.40343C132.33 5.76343 132.743 5.09677 133.25 4.40343C133.41 4.1901 133.557 3.96343 133.69 3.72343C133.85 3.45677 133.983 3.2301 134.09 3.04343C134.117 3.01677 134.157 2.96343 134.21 2.88343C134.05 2.93677 133.85 3.01677 133.61 3.12343C133.397 3.2301 133.143 3.3901 132.85 3.60343C132.37 3.89677 131.863 4.28343 131.33 4.76343C130.797 5.21677 130.25 5.69677 129.69 6.20343C129.557 6.3101 129.41 6.4301 129.25 6.56343C129.117 6.69677 128.983 6.8301 128.85 6.96343C128.61 7.17677 128.33 7.28343 128.01 7.28343C127.663 7.25677 127.383 7.1101 127.17 6.84343C126.93 6.60343 126.823 6.32343 126.85 6.00343C126.877 5.65677 127.01 5.37677 127.25 5.16343C127.383 5.0301 127.53 4.89677 127.69 4.76343C127.823 4.6301 127.957 4.5101 128.09 4.40343C128.943 3.6301 129.783 2.92343 130.61 2.28343C131.437 1.61677 132.25 1.1101 133.05 0.763432C133.85 0.416765 134.623 0.350098 135.37 0.563432C135.823 0.670099 136.143 0.856766 136.33 1.12343C136.543 1.36343 136.663 1.57677 136.69 1.76343C136.93 2.3501 136.877 2.97677 136.53 3.64343C136.183 4.28343 135.743 4.9901 135.21 5.76343C135.157 5.81677 135.09 5.9101 135.01 6.04343C134.957 6.1501 134.89 6.25677 134.81 6.36343C135.21 6.20343 135.73 6.00343 136.37 5.76343C137.01 5.52343 137.783 5.2301 138.69 4.88343C139.037 4.77677 139.357 4.80343 139.65 4.96343C139.943 5.09677 140.143 5.32343 140.25 5.64343C140.383 5.93677 140.37 6.24343 140.21 6.56343C140.077 6.85677 139.863 7.0701 139.57 7.20343C138.717 7.49677 137.943 7.76343 137.25 8.00343C136.557 8.24343 135.97 8.45677 135.49 8.64343C135.223 8.7501 134.983 8.84343 134.77 8.92343C134.583 8.97677 134.41 9.0301 134.25 9.08343C134.063 9.13677 133.903 9.1901 133.77 9.24343C133.637 9.2701 133.503 9.28343 133.37 9.28343ZM148.185 10.4834C147.865 10.4834 147.599 10.3901 147.385 10.2034C146.959 9.85677 146.839 9.41677 147.025 8.88343C147.025 8.85677 147.119 8.53677 147.305 7.92343C147.519 7.3101 147.759 6.61677 148.025 5.84343C148.159 5.3901 148.279 5.00343 148.385 4.68343C148.492 4.33677 148.585 4.0301 148.665 3.76343C147.945 4.0301 147.065 4.36343 146.025 4.76343C144.985 5.13677 143.892 5.53677 142.745 5.96343C141.625 6.3901 140.532 6.80343 139.465 7.20343C139.172 7.3101 138.879 7.29677 138.585 7.16343C138.265 7.00343 138.039 6.76343 137.905 6.44343C137.799 6.1501 137.825 5.85677 137.985 5.56343C138.119 5.24343 138.345 5.01677 138.665 4.88343C139.865 4.45677 141.105 4.01677 142.385 3.56343C143.665 3.08343 144.852 2.64343 145.945 2.24343C147.039 1.81677 147.932 1.4701 148.625 1.20343C149.319 0.936765 149.665 0.803432 149.665 0.803432C149.799 0.776765 149.932 0.763432 150.065 0.763432C150.199 0.736766 150.319 0.750099 150.425 0.803432C150.799 0.856765 151.065 1.0701 151.225 1.44343C151.359 1.65677 151.412 1.93677 151.385 2.28343C151.385 2.60343 151.319 3.0701 151.185 3.68343C151.105 4.0301 150.999 4.41677 150.865 4.84343C150.759 5.24343 150.612 5.7101 150.425 6.24343C150.399 6.3501 150.372 6.44343 150.345 6.52343C150.319 6.60343 150.292 6.69677 150.265 6.80343C151.332 6.21677 152.639 5.60343 154.185 4.96343C154.479 4.8301 154.772 4.8301 155.065 4.96343C155.385 5.0701 155.599 5.2701 155.705 5.56343C155.865 5.85677 155.879 6.16343 155.745 6.48343C155.612 6.80343 155.399 7.0301 155.105 7.16343C153.905 7.69677 152.825 8.20343 151.865 8.68343C150.932 9.16343 150.185 9.5501 149.625 9.84343C149.065 10.1368 148.785 10.2834 148.785 10.2834C148.625 10.4168 148.425 10.4834 148.185 10.4834ZM159.932 9.28343C159.799 9.28343 159.692 9.2701 159.612 9.24343C159.186 9.13677 158.879 8.97677 158.692 8.76343C158.532 8.52343 158.426 8.33677 158.372 8.20343C158.186 7.61677 158.252 7.01677 158.572 6.40343C158.892 5.76343 159.306 5.09677 159.812 4.40343C159.972 4.1901 160.119 3.96343 160.252 3.72343C160.412 3.45677 160.546 3.2301 160.652 3.04343C160.679 3.01677 160.719 2.96343 160.772 2.88343C160.612 2.93677 160.412 3.01677 160.172 3.12343C159.959 3.2301 159.706 3.3901 159.412 3.60343C158.932 3.89677 158.426 4.28343 157.892 4.76343C157.359 5.21677 156.812 5.69677 156.252 6.20343C156.119 6.3101 155.972 6.4301 155.812 6.56343C155.679 6.69677 155.546 6.8301 155.412 6.96343C155.172 7.17677 154.892 7.28343 154.572 7.28343C154.226 7.25677 153.946 7.1101 153.732 6.84343C153.492 6.60343 153.386 6.32343 153.412 6.00343C153.439 5.65677 153.572 5.37677 153.812 5.16343C153.946 5.0301 154.092 4.89677 154.252 4.76343C154.386 4.6301 154.519 4.5101 154.652 4.40343C155.506 3.6301 156.346 2.92343 157.172 2.28343C157.999 1.61677 158.812 1.1101 159.612 0.763432C160.412 0.416765 161.186 0.350098 161.932 0.563432C162.386 0.670099 162.706 0.856766 162.892 1.12343C163.106 1.36343 163.226 1.57677 163.252 1.76343C163.492 2.3501 163.439 2.97677 163.092 3.64343C162.746 4.28343 162.306 4.9901 161.772 5.76343C161.719 5.81677 161.652 5.9101 161.572 6.04343C161.519 6.1501 161.452 6.25677 161.372 6.36343C161.772 6.20343 162.292 6.00343 162.932 5.76343C163.572 5.52343 164.346 5.2301 165.252 4.88343C165.599 4.77677 165.919 4.80343 166.212 4.96343C166.506 5.09677 166.706 5.32343 166.812 5.64343C166.946 5.93677 166.932 6.24343 166.772 6.56343C166.639 6.85677 166.426 7.0701 166.132 7.20343C165.279 7.49677 164.506 7.76343 163.812 8.00343C163.119 8.24343 162.532 8.45677 162.052 8.64343C161.786 8.7501 161.546 8.84343 161.332 8.92343C161.146 8.97677 160.972 9.0301 160.812 9.08343C160.626 9.13677 160.466 9.1901 160.332 9.24343C160.199 9.2701 160.066 9.28343 159.932 9.28343ZM168.828 12.7634C168.641 12.7634 168.455 12.7368 168.268 12.6834C168.081 12.6568 167.895 12.6301 167.708 12.6034C167.228 12.4701 166.895 12.1901 166.708 11.7634C166.468 11.2301 166.468 10.5901 166.708 9.84343C166.975 9.0701 167.401 8.08343 167.988 6.88343C168.095 6.6701 168.201 6.4301 168.308 6.16343C168.441 5.89677 168.561 5.64343 168.668 5.40343C168.321 5.53677 167.948 5.76343 167.548 6.08343C167.175 6.37677 166.788 6.68343 166.388 7.00343C166.121 7.1901 165.828 7.2701 165.508 7.24343C165.161 7.1901 164.881 7.04343 164.668 6.80343C164.481 6.53677 164.415 6.24343 164.468 5.92343C164.495 5.60343 164.628 5.32343 164.868 5.08343C165.241 4.81677 165.628 4.52343 166.028 4.20343C166.455 3.88343 166.881 3.61677 167.308 3.40343C168.401 2.84343 169.401 2.69677 170.308 2.96343C170.735 3.04343 171.055 3.3101 171.268 3.76343C171.481 4.1901 171.468 4.72343 171.228 5.36343C171.015 6.00343 170.641 6.8701 170.108 7.96343C169.975 8.28343 169.828 8.60343 169.668 8.92343C169.535 9.24343 169.401 9.5501 169.268 9.84343C169.241 9.9501 169.201 10.0434 169.148 10.1234C169.121 10.2034 169.095 10.2834 169.068 10.3634C169.628 10.2834 170.441 10.0034 171.508 9.52343C172.601 9.01677 174.068 8.0301 175.908 6.56343C176.895 5.7901 177.788 5.04343 178.588 4.32343C179.388 3.57677 180.028 2.96343 180.508 2.48343C180.988 2.00343 181.228 1.76343 181.228 1.76343C181.548 1.3901 181.935 1.2701 182.388 1.40343C182.601 1.4301 182.775 1.52343 182.908 1.68343C183.041 1.81677 183.148 1.9501 183.228 2.08343C183.415 2.45677 183.428 2.89677 183.268 3.40343C183.135 3.88343 182.841 4.6701 182.388 5.76343C182.228 6.1101 182.068 6.45677 181.908 6.80343C181.775 7.1501 181.641 7.4701 181.508 7.76343C181.481 7.8701 181.455 7.96343 181.428 8.04343C181.428 8.09677 181.415 8.1501 181.388 8.20343C181.895 8.12343 182.428 7.9101 182.988 7.56343C183.575 7.1901 184.135 6.77677 184.668 6.32343C185.228 5.8701 185.695 5.48343 186.068 5.16343C186.335 4.92343 186.628 4.81677 186.948 4.84343C187.268 4.8701 187.548 5.00343 187.788 5.24343C188.001 5.5101 188.095 5.80343 188.068 6.12343C188.068 6.44343 187.935 6.72343 187.668 6.96343C186.841 7.68343 185.988 8.36343 185.108 9.00343C184.255 9.64343 183.388 10.1234 182.508 10.4434C181.655 10.7368 180.788 10.7768 179.908 10.5634C179.481 10.3768 179.175 10.1101 178.988 9.76343C178.828 9.3901 178.775 8.97677 178.828 8.52343C178.908 8.0701 179.068 7.5101 179.308 6.84343C179.015 7.1101 178.708 7.36343 178.388 7.60343C178.095 7.84343 177.775 8.1101 177.428 8.40343C173.748 11.3101 170.881 12.7634 168.828 12.7634ZM192.237 9.28343C192.104 9.28343 191.997 9.2701 191.917 9.24343C191.49 9.13677 191.184 8.97677 190.997 8.76343C190.837 8.52343 190.73 8.33677 190.677 8.20343C190.49 7.61677 190.557 7.01677 190.877 6.40343C191.197 5.76343 191.61 5.09677 192.117 4.40343C192.277 4.1901 192.424 3.96343 192.557 3.72343C192.717 3.45677 192.85 3.2301 192.957 3.04343C192.984 3.01677 193.024 2.96343 193.077 2.88343C192.917 2.93677 192.717 3.01677 192.477 3.12343C192.264 3.2301 192.01 3.3901 191.717 3.60343C191.237 3.89677 190.73 4.28343 190.197 4.76343C189.664 5.21677 189.117 5.69677 188.557 6.20343C188.424 6.3101 188.277 6.4301 188.117 6.56343C187.984 6.69677 187.85 6.8301 187.717 6.96343C187.477 7.17677 187.197 7.28343 186.877 7.28343C186.53 7.25677 186.25 7.1101 186.037 6.84343C185.797 6.60343 185.69 6.32343 185.717 6.00343C185.744 5.65677 185.877 5.37677 186.117 5.16343C186.25 5.0301 186.397 4.89677 186.557 4.76343C186.69 4.6301 186.824 4.5101 186.957 4.40343C187.81 3.6301 188.65 2.92343 189.477 2.28343C190.304 1.61677 191.117 1.1101 191.917 0.763432C192.717 0.416765 193.49 0.350098 194.237 0.563432C194.69 0.670099 195.01 0.856766 195.197 1.12343C195.41 1.36343 195.53 1.57677 195.557 1.76343C195.797 2.3501 195.744 2.97677 195.397 3.64343C195.05 4.28343 194.61 4.9901 194.077 5.76343C194.024 5.81677 193.957 5.9101 193.877 6.04343C193.824 6.1501 193.757 6.25677 193.677 6.36343C194.077 6.20343 194.597 6.00343 195.237 5.76343C195.877 5.52343 196.65 5.2301 197.557 4.88343C197.904 4.77677 198.224 4.80343 198.517 4.96343C198.81 5.09677 199.01 5.32343 199.117 5.64343C199.25 5.93677 199.237 6.24343 199.077 6.56343C198.944 6.85677 198.73 7.0701 198.437 7.20343C197.584 7.49677 196.81 7.76343 196.117 8.00343C195.424 8.24343 194.837 8.45677 194.357 8.64343C194.09 8.7501 193.85 8.84343 193.637 8.92343C193.45 8.97677 193.277 9.0301 193.117 9.08343C192.93 9.13677 192.77 9.1901 192.637 9.24343C192.504 9.2701 192.37 9.28343 192.237 9.28343ZM201.133 12.7634C200.946 12.7634 200.759 12.7368 200.573 12.6834C200.386 12.6568 200.199 12.6301 200.013 12.6034C199.533 12.4701 199.199 12.1901 199.013 11.7634C198.773 11.2301 198.773 10.5901 199.013 9.84343C199.279 9.0701 199.706 8.08343 200.293 6.88343C200.399 6.6701 200.506 6.4301 200.613 6.16343C200.746 5.89677 200.866 5.64343 200.973 5.40343C200.626 5.53677 200.253 5.76343 199.853 6.08343C199.479 6.37677 199.093 6.68343 198.693 7.00343C198.426 7.1901 198.133 7.2701 197.813 7.24343C197.466 7.1901 197.186 7.04343 196.973 6.80343C196.786 6.53677 196.719 6.24343 196.773 5.92343C196.799 5.60343 196.933 5.32343 197.173 5.08343C197.546 4.81677 197.933 4.52343 198.333 4.20343C198.759 3.88343 199.186 3.61677 199.613 3.40343C200.706 2.84343 201.706 2.69677 202.613 2.96343C203.039 3.04343 203.359 3.3101 203.573 3.76343C203.786 4.1901 203.773 4.72343 203.533 5.36343C203.319 6.00343 202.946 6.8701 202.413 7.96343C202.279 8.28343 202.133 8.60343 201.973 8.92343C201.839 9.24343 201.706 9.5501 201.573 9.84343C201.546 9.9501 201.506 10.0434 201.453 10.1234C201.426 10.2034 201.399 10.2834 201.373 10.3634C201.933 10.2834 202.746 10.0034 203.813 9.52343C204.906 9.01677 206.373 8.0301 208.213 6.56343C209.199 5.7901 210.093 5.04343 210.893 4.32343C211.693 3.57677 212.333 2.96343 212.813 2.48343C213.293 2.00343 213.533 1.76343 213.533 1.76343C213.853 1.3901 214.239 1.2701 214.693 1.40343C214.906 1.4301 215.079 1.52343 215.213 1.68343C215.346 1.81677 215.453 1.9501 215.533 2.08343C215.719 2.45677 215.733 2.89677 215.573 3.40343C215.439 3.88343 215.146 4.6701 214.693 5.76343C214.533 6.1101 214.373 6.45677 214.213 6.80343C214.079 7.1501 213.946 7.4701 213.813 7.76343C213.786 7.8701 213.759 7.96343 213.733 8.04343C213.733 8.09677 213.719 8.1501 213.693 8.20343C214.199 8.12343 214.733 7.9101 215.293 7.56343C215.879 7.1901 216.439 6.77677 216.973 6.32343C217.533 5.8701 217.999 5.48343 218.373 5.16343C218.639 4.92343 218.933 4.81677 219.253 4.84343C219.573 4.8701 219.853 5.00343 220.093 5.24343C220.306 5.5101 220.399 5.80343 220.373 6.12343C220.373 6.44343 220.239 6.72343 219.973 6.96343C219.146 7.68343 218.293 8.36343 217.413 9.00343C216.559 9.64343 215.693 10.1234 214.813 10.4434C213.959 10.7368 213.093 10.7768 212.213 10.5634C211.786 10.3768 211.479 10.1101 211.293 9.76343C211.133 9.3901 211.079 8.97677 211.133 8.52343C211.213 8.0701 211.373 7.5101 211.613 6.84343C211.319 7.1101 211.013 7.36343 210.693 7.60343C210.399 7.84343 210.079 8.1101 209.733 8.40343C206.053 11.3101 203.186 12.7634 201.133 12.7634ZM224.542 9.28343C224.408 9.28343 224.302 9.2701 224.222 9.24343C223.795 9.13677 223.488 8.97677 223.302 8.76343C223.142 8.52343 223.035 8.33677 222.982 8.20343C222.795 7.61677 222.862 7.01677 223.182 6.40343C223.502 5.76343 223.915 5.09677 224.422 4.40343C224.582 4.1901 224.728 3.96343 224.862 3.72343C225.022 3.45677 225.155 3.2301 225.262 3.04343C225.288 3.01677 225.328 2.96343 225.382 2.88343C225.222 2.93677 225.022 3.01677 224.782 3.12343C224.568 3.2301 224.315 3.3901 224.022 3.60343C223.542 3.89677 223.035 4.28343 222.502 4.76343C221.968 5.21677 221.422 5.69677 220.862 6.20343C220.728 6.3101 220.582 6.4301 220.422 6.56343C220.288 6.69677 220.155 6.8301 220.022 6.96343C219.782 7.17677 219.502 7.28343 219.182 7.28343C218.835 7.25677 218.555 7.1101 218.342 6.84343C218.102 6.60343 217.995 6.32343 218.022 6.00343C218.048 5.65677 218.182 5.37677 218.422 5.16343C218.555 5.0301 218.702 4.89677 218.862 4.76343C218.995 4.6301 219.128 4.5101 219.262 4.40343C220.115 3.6301 220.955 2.92343 221.782 2.28343C222.608 1.61677 223.422 1.1101 224.222 0.763432C225.022 0.416765 225.795 0.350098 226.542 0.563432C226.995 0.670099 227.315 0.856766 227.502 1.12343C227.715 1.36343 227.835 1.57677 227.862 1.76343C228.102 2.3501 228.048 2.97677 227.702 3.64343C227.355 4.28343 226.915 4.9901 226.382 5.76343C226.328 5.81677 226.262 5.9101 226.182 6.04343C226.128 6.1501 226.062 6.25677 225.982 6.36343C226.382 6.20343 226.902 6.00343 227.542 5.76343C228.182 5.52343 228.955 5.2301 229.862 4.88343C230.208 4.77677 230.528 4.80343 230.822 4.96343C231.115 5.09677 231.315 5.32343 231.422 5.64343C231.555 5.93677 231.542 6.24343 231.382 6.56343C231.248 6.85677 231.035 7.0701 230.742 7.20343C229.888 7.49677 229.115 7.76343 228.422 8.00343C227.728 8.24343 227.142 8.45677 226.662 8.64343C226.395 8.7501 226.155 8.84343 225.942 8.92343C225.755 8.97677 225.582 9.0301 225.422 9.08343C225.235 9.13677 225.075 9.1901 224.942 9.24343C224.808 9.2701 224.675 9.28343 224.542 9.28343ZM233.437 12.7634C233.251 12.7634 233.064 12.7368 232.877 12.6834C232.691 12.6568 232.504 12.6301 232.317 12.6034C231.837 12.4701 231.504 12.1901 231.317 11.7634C231.077 11.2301 231.077 10.5901 231.317 9.84343C231.584 9.0701 232.011 8.08343 232.597 6.88343C232.704 6.6701 232.811 6.4301 232.917 6.16343C233.051 5.89677 233.171 5.64343 233.277 5.40343C232.931 5.53677 232.557 5.76343 232.157 6.08343C231.784 6.37677 231.397 6.68343 230.997 7.00343C230.731 7.1901 230.437 7.2701 230.117 7.24343C229.771 7.1901 229.491 7.04343 229.277 6.80343C229.091 6.53677 229.024 6.24343 229.077 5.92343C229.104 5.60343 229.237 5.32343 229.477 5.08343C229.851 4.81677 230.237 4.52343 230.637 4.20343C231.064 3.88343 231.491 3.61677 231.917 3.40343C233.011 2.84343 234.011 2.69677 234.917 2.96343C235.344 3.04343 235.664 3.3101 235.877 3.76343C236.091 4.1901 236.077 4.72343 235.837 5.36343C235.624 6.00343 235.251 6.8701 234.717 7.96343C234.584 8.28343 234.437 8.60343 234.277 8.92343C234.144 9.24343 234.011 9.5501 233.877 9.84343C233.851 9.9501 233.811 10.0434 233.757 10.1234C233.731 10.2034 233.704 10.2834 233.677 10.3634C234.237 10.2834 235.051 10.0034 236.117 9.52343C237.211 9.01677 238.677 8.0301 240.517 6.56343C241.504 5.7901 242.397 5.04343 243.197 4.32343C243.997 3.57677 244.637 2.96343 245.117 2.48343C245.597 2.00343 245.837 1.76343 245.837 1.76343C246.157 1.3901 246.544 1.2701 246.997 1.40343C247.211 1.4301 247.384 1.52343 247.517 1.68343C247.651 1.81677 247.757 1.9501 247.837 2.08343C248.024 2.45677 248.037 2.89677 247.877 3.40343C247.744 3.88343 247.451 4.6701 246.997 5.76343C246.837 6.1101 246.677 6.45677 246.517 6.80343C246.384 7.1501 246.251 7.4701 246.117 7.76343C246.091 7.8701 246.064 7.96343 246.037 8.04343C246.037 8.09677 246.024 8.1501 245.997 8.20343C246.504 8.12343 247.037 7.9101 247.597 7.56343C248.184 7.1901 248.744 6.77677 249.277 6.32343C249.837 5.8701 250.304 5.48343 250.677 5.16343C250.944 4.92343 251.237 4.81677 251.557 4.84343C251.877 4.8701 252.157 5.00343 252.397 5.24343C252.611 5.5101 252.704 5.80343 252.677 6.12343C252.677 6.44343 252.544 6.72343 252.277 6.96343C251.451 7.68343 250.597 8.36343 249.717 9.00343C248.864 9.64343 247.997 10.1234 247.117 10.4434C246.264 10.7368 245.397 10.7768 244.517 10.5634C244.091 10.3768 243.784 10.1101 243.597 9.76343C243.437 9.3901 243.384 8.97677 243.437 8.52343C243.517 8.0701 243.677 7.5101 243.917 6.84343C243.624 7.1101 243.317 7.36343 242.997 7.60343C242.704 7.84343 242.384 8.1101 242.037 8.40343C238.357 11.3101 235.491 12.7634 233.437 12.7634ZM256.846 9.28343C256.713 9.28343 256.606 9.2701 256.526 9.24343C256.1 9.13677 255.793 8.97677 255.606 8.76343C255.446 8.52343 255.34 8.33677 255.286 8.20343C255.1 7.61677 255.166 7.01677 255.486 6.40343C255.806 5.76343 256.22 5.09677 256.726 4.40343C256.886 4.1901 257.033 3.96343 257.166 3.72343C257.326 3.45677 257.46 3.2301 257.566 3.04343C257.593 3.01677 257.633 2.96343 257.686 2.88343C257.526 2.93677 257.326 3.01677 257.086 3.12343C256.873 3.2301 256.62 3.3901 256.326 3.60343C255.846 3.89677 255.34 4.28343 254.806 4.76343C254.273 5.21677 253.726 5.69677 253.166 6.20343C253.033 6.3101 252.886 6.4301 252.726 6.56343C252.593 6.69677 252.46 6.8301 252.326 6.96343C252.086 7.17677 251.806 7.28343 251.486 7.28343C251.14 7.25677 250.86 7.1101 250.646 6.84343C250.406 6.60343 250.3 6.32343 250.326 6.00343C250.353 5.65677 250.486 5.37677 250.726 5.16343C250.86 5.0301 251.006 4.89677 251.166 4.76343C251.3 4.6301 251.433 4.5101 251.566 4.40343C252.42 3.6301 253.26 2.92343 254.086 2.28343C254.913 1.61677 255.726 1.1101 256.526 0.763432C257.326 0.416765 258.1 0.350098 258.846 0.563432C259.3 0.670099 259.62 0.856766 259.806 1.12343C260.02 1.36343 260.14 1.57677 260.166 1.76343C260.406 2.3501 260.353 2.97677 260.006 3.64343C259.66 4.28343 259.22 4.9901 258.686 5.76343C258.633 5.81677 258.566 5.9101 258.486 6.04343C258.433 6.1501 258.366 6.25677 258.286 6.36343C258.686 6.20343 259.206 6.00343 259.846 5.76343C260.486 5.52343 261.26 5.2301 262.166 4.88343C262.513 4.77677 262.833 4.80343 263.126 4.96343C263.42 5.09677 263.62 5.32343 263.726 5.64343C263.86 5.93677 263.846 6.24343 263.686 6.56343C263.553 6.85677 263.34 7.0701 263.046 7.20343C262.193 7.49677 261.42 7.76343 260.726 8.00343C260.033 8.24343 259.446 8.45677 258.966 8.64343C258.7 8.7501 258.46 8.84343 258.246 8.92343C258.06 8.97677 257.886 9.0301 257.726 9.08343C257.54 9.13677 257.38 9.1901 257.246 9.24343C257.113 9.2701 256.98 9.28343 256.846 9.28343ZM265.742 12.7634C265.555 12.7634 265.369 12.7368 265.182 12.6834C264.995 12.6568 264.809 12.6301 264.622 12.6034C264.142 12.4701 263.809 12.1901 263.622 11.7634C263.382 11.2301 263.382 10.5901 263.622 9.84343C263.889 9.0701 264.315 8.08343 264.902 6.88343C265.009 6.6701 265.115 6.4301 265.222 6.16343C265.355 5.89677 265.475 5.64343 265.582 5.40343C265.235 5.53677 264.862 5.76343 264.462 6.08343C264.089 6.37677 263.702 6.68343 263.302 7.00343C263.035 7.1901 262.742 7.2701 262.422 7.24343C262.075 7.1901 261.795 7.04343 261.582 6.80343C261.395 6.53677 261.329 6.24343 261.382 5.92343C261.409 5.60343 261.542 5.32343 261.782 5.08343C262.155 4.81677 262.542 4.52343 262.942 4.20343C263.369 3.88343 263.795 3.61677 264.222 3.40343C265.315 2.84343 266.315 2.69677 267.222 2.96343C267.649 3.04343 267.969 3.3101 268.182 3.76343C268.395 4.1901 268.382 4.72343 268.142 5.36343C267.929 6.00343 267.555 6.8701 267.022 7.96343C266.889 8.28343 266.742 8.60343 266.582 8.92343C266.449 9.24343 266.315 9.5501 266.182 9.84343C266.155 9.9501 266.115 10.0434 266.062 10.1234C266.035 10.2034 266.009 10.2834 265.982 10.3634C266.542 10.2834 267.355 10.0034 268.422 9.52343C269.515 9.01677 270.982 8.0301 272.822 6.56343C273.809 5.7901 274.702 5.04343 275.502 4.32343C276.302 3.57677 276.942 2.96343 277.422 2.48343C277.902 2.00343 278.142 1.76343 278.142 1.76343C278.462 1.3901 278.849 1.2701 279.302 1.40343C279.515 1.4301 279.689 1.52343 279.822 1.68343C279.955 1.81677 280.062 1.9501 280.142 2.08343C280.329 2.45677 280.342 2.89677 280.182 3.40343C280.049 3.88343 279.755 4.6701 279.302 5.76343C279.142 6.1101 278.982 6.45677 278.822 6.80343C278.689 7.1501 278.555 7.4701 278.422 7.76343C278.395 7.8701 278.369 7.96343 278.342 8.04343C278.342 8.09677 278.329 8.1501 278.302 8.20343C278.809 8.12343 279.342 7.9101 279.902 7.56343C280.489 7.1901 281.049 6.77677 281.582 6.32343C282.142 5.8701 282.609 5.48343 282.982 5.16343C283.249 4.92343 283.542 4.81677 283.862 4.84343C284.182 4.8701 284.462 5.00343 284.702 5.24343C284.915 5.5101 285.009 5.80343 284.982 6.12343C284.982 6.44343 284.849 6.72343 284.582 6.96343C283.755 7.68343 282.902 8.36343 282.022 9.00343C281.169 9.64343 280.302 10.1234 279.422 10.4434C278.569 10.7368 277.702 10.7768 276.822 10.5634C276.395 10.3768 276.089 10.1101 275.902 9.76343C275.742 9.3901 275.689 8.97677 275.742 8.52343C275.822 8.0701 275.982 7.5101 276.222 6.84343C275.929 7.1101 275.622 7.36343 275.302 7.60343C275.009 7.84343 274.689 8.1101 274.342 8.40343C270.662 11.3101 267.795 12.7634 265.742 12.7634Z" fill="#427329"/>
</svg>
